<?xml version="1.0" encoding="UTF-8"?>
<svg version="1.1" xmlns="http://www.w3.org/2000/svg" width="476" height="420">
<path d="M0 0 C4.37878591 1.4595953 5.59510348 4.87874348 7.8125 8.6875 C8.79749649 10.33972528 9.78457091 11.99071309 10.7734375 13.640625 C11.29647461 14.51525391 11.81951172 15.38988281 12.35839844 16.29101562 C15.14361617 20.88720479 18.04096394 25.41093917 20.9375 29.9375 C22.13160078 31.80723396 23.32561146 33.67702546 24.51953125 35.546875 C25.10299316 36.46017578 25.68645508 37.37347656 26.28759766 38.31445312 C28.91245258 42.43099206 31.52000075 46.55837666 34.125 50.6875 C34.85577759 51.84560181 34.85577759 51.84560181 35.60131836 53.02709961 C36.57839666 54.57577765 37.55536657 56.12452409 38.53222656 57.67333984 C41.01983357 61.61660245 43.51006414 65.55820768 46 69.5 C47.00001224 71.0833256 48.00001225 72.66665893 49 74.25 C49.495 75.03375 49.99 75.8175 50.5 76.625 C80 123.33333333 109.5 170.04166667 139 216.75 C139.49516113 217.5339917 139.99032227 218.3179834 140.50048828 219.12573242 C141.49890968 220.7065934 142.4972822 222.28748525 143.49560547 223.8684082 C146.01935492 227.86482516 148.54399298 231.86067588 151.0703125 235.85546875 C157.41119609 245.88443788 163.72260318 255.93116661 170 266 C165.78123934 266 163.35515179 263.69016976 160 261.375 C113.99207719 230.71490175 57.71101712 214.13877827 2.65039062 224.21704102 C-14.17713778 227.60328237 -29.97512834 233.7810524 -45 242 C-46.04414063 242.56460938 -47.08828125 243.12921875 -48.1640625 243.7109375 C-68.36603413 255.06455216 -84.91643581 270.50694436 -101 287 C-101.66 286.67 -102.32 286.34 -103 286 C-93.57781173 264.80589257 -81.80110468 247.01440379 -66 230 C-65.4225 229.35675781 -64.845 228.71351563 -64.25 228.05078125 C-42.2218319 204.59668263 -9.70382233 189.85647627 22 186 C22.90105469 185.88914063 23.80210937 185.77828125 24.73046875 185.6640625 C40.17009078 184.08815625 55.45077517 184.99382713 70.82226562 186.75634766 C73.79450122 187.0888915 76.77094023 187.36146779 79.75 187.625 C80.59046875 187.69976562 81.4309375 187.77453125 82.296875 187.8515625 C83.13992188 187.92503906 83.13992188 187.92503906 84 188 C83.32195312 187.21238281 82.64390625 186.42476562 81.9453125 185.61328125 C75.82241709 178.46213873 69.9750831 171.16177221 64.27685547 163.66796875 C62.06513361 160.77877492 59.81387244 157.92083673 57.5625 155.0625 C57.10488281 154.48121338 56.64726562 153.89992676 56.17578125 153.30102539 C55.24774757 152.12257251 54.3195245 150.94426875 53.39111328 149.76611328 C51.09125763 146.84628952 48.79584055 143.92298107 46.5 141 C45.5833549 139.83331639 44.66668823 138.66664973 43.75 137.5 C38.25 130.5 38.25 130.5 36.87524414 128.75024414 C35.95784991 127.5826959 35.04036933 126.41521551 34.12280273 125.24780273 C31.84155755 122.3451721 29.56178786 119.44140726 27.28515625 116.53515625 C26.37772677 115.37750805 25.47017462 114.219956 24.5625 113.0625 C24.11567871 112.49265381 23.66885742 111.92280762 23.20849609 111.33569336 C20.76103192 108.22069927 18.29817157 105.11900158 15.81640625 102.03125 C15.01771118 101.03726196 15.01771118 101.03726196 14.20288086 100.02319336 C13.18595166 98.75954514 12.16735939 97.49723259 11.14672852 96.23657227 C7.94296085 92.25733531 4.93662993 88.18069316 2 84 C-1.00210439 85.35436689 -3.16415175 86.88684072 -5.5390625 89.16015625 C-6.52555786 90.09637817 -6.52555786 90.09637817 -7.53198242 91.05151367 C-8.22267822 91.71513916 -8.91337402 92.37876465 -9.625 93.0625 C-11.07091142 94.43563664 -12.51752364 95.80803573 -13.96484375 97.1796875 C-14.66206543 97.84194336 -15.35928711 98.50419922 -16.07763672 99.18652344 C-19.1728055 102.10637531 -22.34570735 104.93594978 -25.51953125 107.76953125 C-28.49553256 110.44558912 -31.4369955 113.15736736 -34.375 115.875 C-40.07400799 121.14654064 -45.79036268 126.39864397 -51.51611328 131.64111328 C-54.01164407 133.92642496 -56.50574527 136.2132958 -59 138.5 C-59.99999325 139.41667404 -60.99999324 140.3333407 -62 141.25 C-62.495 141.70375 -62.99 142.1575 -63.5 142.625 C-113 188 -162.5 233.375 -248 311.75 C-248.49564453 312.2044751 -248.99128906 312.6589502 -249.50195312 313.12719727 C-250.49490171 314.03713043 -251.48838535 314.94648008 -252.48242188 315.85522461 C-255.09515932 318.24522705 -257.69586877 320.64681335 -260.28125 323.06640625 C-260.82007813 323.56785156 -261.35890625 324.06929688 -261.9140625 324.5859375 C-263.41426041 325.98267349 -264.91038137 327.3837847 -266.40625 328.78515625 C-268.58978654 330.6497123 -270.37383521 331.90370007 -273 333 C-271.3416808 329.05434398 -268.65282045 326.06587925 -265.875 322.875 C-264.87395074 321.70923352 -263.87395825 320.54255879 -262.875 319.375 C-262.38386719 318.80136719 -261.89273437 318.22773438 -261.38671875 317.63671875 C-258.84094287 314.63198609 -256.40412926 311.54206927 -253.95703125 308.45703125 C-250.35294869 303.93214517 -246.66894134 299.47231298 -243 295 C-241.60403235 293.29177642 -240.20820102 291.58344143 -238.8125 289.875 C-234.27636407 284.32995118 -229.72029343 278.80140427 -225.16455078 273.27246094 C-220.43013437 267.5254518 -215.71020983 261.76687287 -211 256 C-205.06892217 248.73837619 -199.11611367 241.49506694 -193.15356445 234.25927734 C-189.92885454 230.34508068 -186.70883634 226.42723253 -183.5 222.5 C-179.67879546 217.8233019 -175.84062334 213.16074852 -172 208.5 C-166.65312663 202.0109725 -161.31883842 195.51203791 -156 189 C-150.07254041 181.74280613 -144.12322519 174.50403121 -138.16455078 167.27246094 C-134.12088767 162.3639428 -130.08562678 157.44880963 -126.0625 152.5234375 C-124.66894682 150.8184463 -123.27305117 149.11536741 -121.875 147.4140625 C-121.153125 146.53492188 -120.43125 145.65578125 -119.6875 144.75 C-118.95789063 143.86183594 -118.22828125 142.97367188 -117.4765625 142.05859375 C-115.57560338 139.71087926 -113.69895872 137.35021026 -111.8359375 134.97265625 C-111.29364502 134.28397461 -110.75135254 133.59529297 -110.19262695 132.88574219 C-109.11827743 131.51935366 -108.04896759 130.14898529 -106.98510742 128.77441406 C-105.70213932 127.14612094 -104.35622315 125.56780242 -103 124 C-102.34 124 -101.68 124 -101 124 C-99.02 129.445 -99.02 129.445 -97 135 C-97 111.24 -97 87.48 -97 63 C-101.95 67.95 -106.9 72.9 -112 78 C-112.99 78.33 -113.98 78.66 -115 79 C-114.40691561 75.36523996 -113.41228787 72.46777524 -111.7421875 69.19140625 C-111.05539917 67.83233154 -111.05539917 67.83233154 -110.35473633 66.44580078 C-109.62226685 65.01856689 -109.62226685 65.01856689 -108.875 63.5625 C-107.87629669 61.59245065 -106.87759878 59.62239857 -105.87890625 57.65234375 C-105.38922363 56.69183105 -104.89954102 55.73131836 -104.39501953 54.74169922 C-102.51452396 51.04587051 -100.66161943 47.33659527 -98.8125 43.625 C-97.875 41.75 -96.9375 39.875 -96 38 C-95.37609375 38.26039062 -94.7521875 38.52078125 -94.109375 38.7890625 C-91.18363991 39.98546681 -91.18363991 39.98546681 -88.82226562 40.61621094 C-82.14454248 42.59270972 -75.96904185 45.03532687 -72 51 C-68.62451778 62.22147024 -70.22725468 75.46639381 -71 87 C-62.61181388 77.16964121 -62.61181388 77.16964121 -54.5625 67.0625 C-50.29356921 61.55530688 -45.83648075 56.24305342 -41.27636719 50.97558594 C-37.71785271 46.85923771 -34.2790482 42.66592901 -30.90234375 38.3984375 C-26.1962571 32.46509621 -21.35735723 26.63730459 -16.52734375 20.8046875 C-15.91455566 20.06355713 -15.30176758 19.32242676 -14.67041016 18.55883789 C-13.46464012 17.10098111 -12.25737063 15.6443627 -11.04833984 14.18920898 C-7.22192965 9.56104884 -3.55973218 4.83621408 0 0 Z " fill="#00BBA7" transform="translate(288,53)"/>
<path d="M0 0 C5.94 0 11.88 0 18 0 C18 7.59 18 15.18 18 23 C12.06 23 6.12 23 0 23 C0 15.41 0 7.82 0 0 Z " fill="#00BBA7" transform="translate(267,209)"/>
<path d="M0 0 C5.94 0 11.88 0 18 0 C18 7.59 18 15.18 18 23 C12.06 23 6.12 23 0 23 C0 15.41 0 7.82 0 0 Z " fill="#FF6700" transform="translate(267,177)"/>
<path d="M0 0 C5.61 0 11.22 0 17 0 C17 7.59 17 15.18 17 23 C11.39 23 5.78 23 0 23 C0 15.41 0 7.82 0 0 Z " fill="#00BBA7" transform="translate(291,209)"/>
<path d="M0 0 C5.61 0 11.22 0 17 0 C17 7.59 17 15.18 17 23 C11.39 23 5.78 23 0 23 C0 15.41 0 7.82 0 0 Z " fill="#00BBA7" transform="translate(291,177)"/>
</svg>
