<svg version="1.0" xmlns="http://www.w3.org/2000/svg" width="2560" height="2560" viewBox="0 0 1920 1920"><path d="M908.5 172.1c-22 3.2-53.5 16.2-63.5 26.2-1.8 1.7-4.4 5.7-5.9 8.7-2.5 5.3-2.6 6.2-3.1 30-.5 23-.7 24.8-2.8 28.8-2.4 4.5-10.6 13.5-34.8 38.2-8.4 8.5-17.3 18-19.8 21l-4.5 5.5 3.3.3c1.9.2 16.1-.6 31.7-1.8 15.6-1.1 32.3-2.3 37.1-2.7 12.7-.9 12.1-1.8 11.3 20.3-.7 17.8-.7 18.2 1.4 20.3 2 2 2.9 2.1 7.7 1.5 4-.5 6-.3 7.7.9 1.3.9 6 8.7 11.1 18.8 5.6 11.1 10.1 18.6 12.3 20.8 3.4 3.3 3.7 3.3 10.2 2.9 4.6-.4 9.8-1.8 17-4.6 11-4.5 13.8-5 14.7-2.8.6 1.6-3.4 8.2-8.4 14-7 7.9-7.4 12.6-4.2 43.8 3.5 33.3 8.1 70.2 9 72.5 1.2 2.9 4.4 3 14.8.3 7.1-1.8 43.7-10.6 93.4-22.5 10.8-2.6 20.5-5.3 21.5-6 1.5-1.1 1.8-5 2.9-37.1.7-19.8 1.8-49.3 2.4-65.7 1-23.3.9-30.4 0-32.7-1.3-3.1-5-4.9-15-7.1-16.9-3.6-29-14-38.3-32.7-3.4-6.8-5.7-12.7-5.7-14.6 0-1.8.9-6.8 2-11.1 2.9-11.4 2.6-24.4-1.1-49.8-2.5-17.3-3-22.9-2.5-30.3.9-11.9-1.3-18.5-8.8-25.9-20.7-20.6-59.9-32.2-93.1-27.4zM1085.9 370.2c-.8 2.2-4.2 70.8-4.6 92.5-.4 27.7-.3 29.3 1.4 29.3 3 0 28.6-4.1 32.8-5.4l4-1.1.6-7.5c.4-4.1.7-18.1.8-31 0-12.9.6-32.8 1.2-44.1 1.3-23.3.9-25.3-5.5-28.3-4.1-1.9-30.2-5.7-30.7-4.4z"/><path d="M1145.2 377c-4.6.4-7.8 1.2-8.8 2.2-2 2-2.1 3.4-3.5 62.3-.6 26.4-1.5 50.9-2 54.4-1.5 10-3 16.1-3.9 16.1-.4 0-1.3-2.3-2-5-1.9-7.8-6-9.4-17-6.9-2.4.5-8.9 1.6-14.3 2.4-11.8 1.6-13.7 2.9-13.7 9 0 2.4-.6 4.7-1.2 5.2-.7.6-21.5 5.9-46.3 11.8-24.7 5.9-56.9 13.6-71.5 17.1-14.6 3.6-27.7 6.7-29.2 7.1-2.3.5-2.9.1-4.2-3.1-.8-2-2.1-3.9-2.9-4.1-1.6-.7-26.5 5.8-30.5 7.9-4.2 2.2-5.2 3.8-6.4 10.6-.6 3.4-1.4 5.8-1.7 5.3-1.4-1.5-6.8-14.8-8.4-20.3-.9-3-3.7-22.2-6.2-42.5-2.5-20.4-4.8-37.8-5.1-38.8-.3-.9-1.1-1.7-1.9-1.7-2.2 0-12.8 8.5-19.6 15.7-8.9 9.5-12.2 16.3-17.3 36-13.9 52.7-27.4 90.3-48.3 133.6-6.9 14.1-10.7 23.3-11.1 26.2-.5 5.2 1.7 12.2 5 15.1 3.9 3.6 3.9 5.6.2 17.1-2 5.9-5.2 13.7-7.2 17.3-12.3 22.2-18 36-22.6 54.5-5.7 22.7-7.2 37.4-8.6 83.5-1.2 39.7-2.5 59.2-4.6 71.5-1.3 7.7-1.4 11.6-.5 27 .7 9.9 1.1 30.8.9 46.5-.2 27.9-.1 28.7 2.3 36.6 1.4 4.5 4.5 11.4 6.8 15.3 6.2 10.2 5.9 11.8-6.5 32.8-5.4 9.3-13.4 22.9-17.7 30.3-20.2 34.4-61 104.4-76.7 131.5-9.5 16.5-20.5 35.6-24.5 42.5-47.1 81.1-82.5 142.9-97.6 170.2-9.1 16.6-11.8 20.8-13.5 20.8-4.2 0-4.8 1.1-31.8 52.6-7.5 14.4-14.4 26.8-15.4 27.7-1 .9-6.5 3.4-12.3 5.6-16.7 6.3-18.5 7.2-16.9 8.1 1.7.9 47.4 16.6 51.3 17.5 1.8.5 6.9-.9 17.8-4.9 8.3-3.1 15.8-6 16.6-6.4 1-.6-1.3-1.9-7.4-4.2-15.8-6-15.3-5.7-15.3-8.2 0-1.3.4-2.8.9-3.3.5-.6 9.1-15 19.1-32 14.4-24.6 18-31.5 17.5-33.5-1.7-7.6-1.6-9.6.8-14 1.3-2.5 22.4-39.4 46.8-82 65.5-114 82.4-143.4 100.7-175 9.1-15.7 18-31 19.7-34 1.7-3 8.7-15 15.5-26.5 6.8-11.6 20.6-35.2 30.7-52.5 10.1-17.3 19.1-32.2 19.9-33 .9-.9 3.1-1.4 6.3-1.2 6.3.3 7.6-.9 14.7-13.3 3.1-5.5 9.1-15.2 13.2-21.5 11.3-17.3 12.6-20.6 11.7-29.4-1.5-14.4-1.7-13.8 7.9-30.6 4.9-8.5 10.2-18 11.9-21 1.7-3 8.5-14.5 15.2-25.5 6.7-11 16.5-27.3 21.8-36.2 5.3-8.9 12.5-20.2 16-25 7.1-9.9 14-21.4 24.7-41.3 4-7.4 9.5-17.5 12.2-22.3 6.1-10.7 6.1-13.8.1-19.9-4.2-4.3-8.4-5.9-12.7-4.7-4.1 1.2-6.4 3.6-9.6 9.9-1.5 3-9.6 17.4-17.9 32-8.4 14.6-19.1 34.1-23.8 43.5-10.4 20.6-17.5 33.2-34.8 62-7.3 12.1-14.2 24-15.5 26.5-1.2 2.5-3.2 5.5-4.3 6.7l-2 2.3-2.7-4.8c-2.7-4.6-5-7.1-13.7-14.7-5.3-4.6-6.8-9.3-5.9-19.3 1.5-17.8 6.7-36.7 23.2-82.9 11.2-31.4 16.1-48.8 19.4-67.8 2.3-13.5 4.4-20.8 8.9-30.9 3.8-8.4 12.7-22.1 18.2-28.1 4.7-5.1 7.3-5.6 16.9-3 3 .8 6.5 1.5 7.8 1.5 3.2 0 6.3-3.8 9.1-11.2 6.1-16 28.3-68.4 29.6-69.7 1.1-1.2 2.1.1 6.4 8.8 11 21.7 21.1 46.4 32.4 78.6 3.8 11 7.3 21.8 7.8 24 .5 2.7.2 8.1-1.1 16.5-4.7 31-8.3 64.7-10.4 96.1l-1.2 19.9-5.6 5.4c-3.1 3-6.7 7.9-8.2 10.8-2.5 5.3-5.1 17-4.4 20.4.4 2.2 17.4-16.6 63.4-70.2 17.6-20.4 45.2-52.6 61.5-71.5 16.2-18.9 29.9-35 30.3-35.7.5-.8 1.2-4.3 1.6-7.9 1.1-8.4 3-10.4 13.6-14.2 18.9-6.9 28.5-13.8 39.7-28.6 13.9-18.3 26.3-32.3 48.4-54.3L1205 627l.2-19.8c.3-31 .5-35.3 1.8-36.5.9-.9 3 .8 9.2 7.3 4.5 4.7 10.6 11.5 13.6 15.2 6.6 8.2 7.8 8.4 17.6 2.6 17.5-10.3 33.8-21.9 51.3-36.7 19-15.9 25.3-22.2 25.9-25.7.6-3.4 2.7-.8-26.7-33.6-19-21.2-41.6-47.5-57.3-66.8-6.5-8-14.6-17.8-18-21.8-21.1-25-47.8-36.8-77.4-34.2zm-34.7 133c1 1.1 2 4.1 2.3 6.8.3 4.1 0 5.3-1.9 7.5-3.6 3.9-9.7 4-13.4.2-1.9-1.8-2.5-3.5-2.5-7 0-6.3 3.1-9.5 9.3-9.5 3.1 0 4.9.6 6.2 2zm-195.9 50.4c3.7 3.7 4.2 6.2 1.9 10.6-1.9 3.6-4.3 5-9 5-9.2 0-12-12.9-3.7-17.4 4.3-2.4 7.1-1.9 10.8 1.8z"/><path d="M895.2 443.7c-8.5 5.6-14.8 10.5-15.5 11.9-.8 1.9-.6 7.8 1.2 25.2 1.2 12.5 2.9 29.4 3.7 37.7.8 8.2 1.7 16.2 2 17.8.9 4.3 3.5 5.1 11.2 3.4 3.7-.8 9.2-1.8 12.3-2.2 7.4-.8 11.6-3.5 12.4-7.7.3-1.8-.1-6.7-.9-10.8-.9-4.1-3.4-23-5.6-42-4.9-42.2-5-43-5.8-42.9-.4 0-7.1 4.3-15 9.6zM1314.5 561.7c-18 17.3-27.8 24.6-60.7 45.3-22.9 14.4-48.6 35.6-70.3 58.1-21.5 22.3-44.5 49.7-44.5 53 0 .5 1.1.9 2.5.9 1.3 0 5.6.5 9.5 1.2 9.6 1.7 11.8.5 21.6-11.9 9.9-12.5 38.6-41.7 52.7-53.6 22.9-19.5 54.7-39.8 54.7-35 0 1.3-35.2 47.4-44.2 58-20.5 23.9-45.2 44.7-61.6 52-5.5 2.4-6.1 2.5-18.2 1.7-22.3-1.5-32.2.2-47.6 7.9-4.9 2.4-10.2 4.7-11.9 5.1-4.6 1.1-5.5 2.4-5.5 7.8 0 2.7-.7 6.2-1.5 7.7-1.5 3-11 14.5-32.5 39.1-6.9 7.9-16.8 19.4-22 25.5-5.3 6-18.9 21.8-30.4 35s-26.1 30-32.5 37.4c-6.4 7.4-15 17.3-19.1 22.1-19.7 22.7-33 38.1-59.5 69-29.9 34.8-36.6 42.4-54.9 62.5-19.3 21.1-26.3 28.3-59.1 61-18.1 18-34.5 35.2-37.5 39.3-5.8 8.1-26.3 44.2-25.5 45 .9.9 29.2-21.6 47.5-37.7 39.1-34.5 69.5-66.8 139.5-148.6 25.9-30.3 37-43.3 64.6-76 4.2-5 25.1-29.7 46.5-55 21.4-25.2 43.1-50.9 48.1-56.9 5.1-6.1 9.7-11.2 10.2-11.4.5-.2 1.5.6 2.1 1.7.6 1.2 2.4 2.8 4.1 3.6 4.1 2.2 7.8.9 17.5-6.1 4.1-3 8-5.4 8.5-5.4.6 0 2.5 1.1 4.3 2.5 1.8 1.3 7 4.2 11.7 6.4 4.6 2.1 10.1 5.1 12.2 6.5 4.6 3.2 5 3.2 16.3.2 18-4.9 23.6-8.5 31.9-20.7 7.9-11.8 11.9-16.3 26.9-29.6 19.5-17.5 26.5-22.9 46.1-35.8 20.5-13.6 42.5-29.1 52-36.9 11.2-9.1 32.8-31 44.3-44.9 13-15.8 14.5-17.9 16.7-24.2 2.2-6.5 1.4-11.3-3.6-21.9-5-10.8-5.1-11.9-.1-11 6.9 1.2 22.3 7.3 29.6 11.5 28.4 16.7 51.3 48.2 62.1 85.4 5.7 19.6 6.9 29.7 6.9 58.5 0 28.7-1.2 38.6-7 59.2-7.9 28.5-22.5 56.9-41.3 80.3-39.2 49-89.5 73.6-145.6 71.2-63.9-2.8-116.2-31.9-148.3-82.6-6.6-10.5-16-29.3-20.4-40.8-3.9-10.3-5.2-11.2-11.9-8.4-4.5 2-5.1 2-8.5.6-2.1-.8-4.5-1.3-5.4-1-1.7.5-9.2 9.1-61.5 70.5-34.8 40.8-39.1 45.7-64.9 75.4-22.8 26.2-26.5 30.9-29.6 38-3.7 8.3-4.3 13.7-3.1 29.9.6 8.4 1.6 25.9 2.1 38.9 1.1 25.9 1.9 29.8 7.2 34.3 1.6 1.4 4 2.7 5.4 3 1.3.3 3.5.7 4.9 1 1.3.3 2.9 1.3 3.4 2.3.5.9 1.6 20.8 2.5 44.2 3.1 78.4 3.8 86.2 9.2 102.8 2.8 8.6 3 15.4 1 26.2-3.2 16.8-4.6 30.4-7.1 68.5-8.7 135.2-9.6 146.9-12.1 151.7-.9 1.8-3.7 5-6.1 7.2-5.9 5.2-7.4 9-7.1 19 .2 7.3 0 8.6-2.7 13.4-4 7.4-18.4 20.8-27.1 25.4-13.8 7.3-22.9 9.8-42.5 11.8-18 1.8-24 4.4-28 12.3-4.2 8.2-6.3 28.2-3.4 33.6 2 3.9 6.5 5.8 20.3 8.6 17.7 3.5 32.8 4.9 47.1 4.2 15.9-.8 24.5-2.8 50.8-11.6 25.3-8.5 28.6-8.9 34.1-3.5l3.7 3.6 22-.5c21.4-.5 27.9-1.2 37.8-4.4 3.4-1.1 5.1-2.2 5.8-4 .5-1.3.9-10.9.9-21.4V1590l3.4-3.7c4.7-5.3 9.2-13.8 11-20.7 1.8-6.7 2.7-17.8 12.1-143.6 4-54.3 5.1-88.7 7.5-252 1.1-73.1 2.2-105.1 4.5-127.5 2.1-20.5 4.7-37.7 5.7-36.7.4.4 2.1 5.3 3.7 10.7 1.6 5.5 6.3 21.5 10.5 35.5 4.1 14 12 40.8 17.5 59.5 13.5 45.9 28.7 96.9 37.6 126 13.7 44.7 18 63.4 30.5 134.1 2.9 15.9 6.7 37.7 8.7 48.4 3 16.9 3.5 22.4 4 41.5.5 19.5.3 23.8-1.7 37.4-1.8 12.2-2.1 17.9-1.7 28 .7 15.9 2.2 21.3 10.8 38.8 9.5 19.6 11.6 29.4 8.5 40.8-1.8 7-4.7 12.3-9.9 18.1-6.1 6.9-12.2 16.9-14.1 23.3-.9 3-1.6 8.6-1.6 12.3 0 5.9.3 7.2 2.4 9.3 4.7 4.7 26 8.5 47.9 8.5 23.1 0 36.7-3 49.4-11 4.7-2.9 7.5-4 10.4-4 6.5 0 10.4-2.2 12.3-6.9 1.8-4.5 1.7-7.3-.5-38.6l-1.1-15 4.1-24c8.2-48.8 9-60.9 7.2-107.5-3.2-85.5-13.6-166.3-36.8-285.3-3.6-18.5-6.2-29.6-7.3-30.9-1.6-2.1-1.7-2.1-13.2-.3-9.9 1.5-12.4 1.5-16.9.5-6.8-1.6-13.6-8.2-16.2-15.5-2.7-7.8-27.9-168.6-26.6-169.9.3-.3 9.2 2.4 19.9 5.8 21.6 7 20.7 6 9.1 10.3-2.4.9-5.9 3.1-7.7 4.9-3.2 3-3.4 3.5-3.4 9.8 0 3.7.9 11.7 2 17.9 1.1 6.2 5.6 34.2 10 62.4 4.3 28.2 8.6 52.7 9.4 54.6 1.8 4.5 5.1 6.7 10.1 6.7 4.4 0 18.4-3.4 45.4-11.1 22.9-6.5 26.4-9.1 26.3-19.3 0-3.9-18.2-113.9-20.7-125.2-.8-3.8 1.6-5.2 13-7.4 32.2-6.4 65.3-22.6 91-44.5 39-33.2 67.6-85.6 79.1-145 2.6-13 2.8-15.9 2.8-39.5 0-27.3-.8-34.8-6-55.5-11.8-46.8-33.7-81.9-64-102.1-15.6-10.4-31-16.4-53.9-20.9-15.3-3.1-22.3-6.1-26.8-11.7-4.6-5.8-7.5-8.8-8.4-8.8-.4.1-5.7 4.9-11.8 10.7zM1497.6 742.1c-1.3 8.7-1.7 34-.5 37.6.6 2 6.9 13 13.9 24.3 83.9 136.1 125.5 232.2 134.5 311.4 1.1 9.5 1.5 21.8 1.4 38.8 0 16.9.3 25.4 1 26.1 1.4 1.4 11.6 2.6 15.4 1.9 5.4-1 6-3.2 6.5-27.5 1.1-49.7-6.8-91.5-27.7-146.9-23.3-61.6-50.7-116.5-95.6-191.3-11.9-19.8-46.4-75.5-47.6-76.9-.4-.5-1 .7-1.3 2.5z"/><path d="M1193.4 802.2l-12.9 17.3-10 5.1c-22.3 11.2-41.4 11.1-56.3-.2-1.8-1.4-3.5-2.4-3.8-2.1-.3.2.2 3.6 1 7.5 9.1 43.8 69.1 101.5 117.1 112.7 3.6.8 8.4 1.5 10.6 1.5 3.6 0 3.9-.2 3.4-2.3-.3-1.2-3.6-17.7-7.4-36.7-7.8-38.6-12.5-60.3-17.1-79.5-4.9-20-10.1-38.9-10.9-39.8-.4-.4-6.5 7-13.7 16.5zM1486 1046.3c-1.7.9-2.6 2.2-2.8 4.4-.5 4.9 1.2 7 7.2 8.7 6.1 1.8 9.2 4.9 10.2 10.3.5 2.7-.1 5.4-2.8 12.2-4.6 11.2-9.1 31.2-7.1 31 .5 0 4.4-5.1 8.8-11.2 9.7-13.6 16.1-20.3 20-21.3 5.4-1.3 5.5-1.5 5.5-17.5 0-12.1-.3-15-1.6-16.3-1.3-1.3-4.4-1.6-18.2-1.6-11.4 0-17.5.4-19.2 1.3zM1536.7 1056.6c-.4.4-.7 3.1-.7 6 0 5.8 1.4 7.4 7.3 8.8 4.3 1 8.5 5.6 9.8 10.7 1.2 4.4 1 5.2-3.4 17.2-4.8 13-5.3 14.7-3.9 14.7.6 0 14.6-15.3 22.4-24.4l2.4-2.9 3.7 3.2c4.6 4.1 5.1 5.8 3.2 11.1-1.8 5-2 15.3-.4 21.2 1.1 3.9.9 4.8-1.4 9.4-3.3 6.4-8.7 11.2-21.3 18.9-5.8 3.5-12.9 8.9-17 13-6.3 6.2-7.4 7.9-9.3 13.9-2 6.4-2.1 9-2.1 42.7 0 34.8.1 36 2 37.9 2 2 2.9 2.1 51.1 1.8 44.2-.3 49.2-.5 50.3-2 .9-1.2 1.1-10.7 1-37-.1-40.6 0-40-9.9-61.7-7.7-17.1-9.4-24.2-10.6-45.1-.6-9.6-1-18.7-1-20.2 0-4.5 2.8-8.6 7.9-11.4 6.3-3.6 8.2-5.4 8.2-7.4 0-2.9-9.1-10.4-17.5-14.6l-7.9-3.9-31.1-.3c-17.1-.2-31.4 0-31.8.4zM1413.1 1076.9c-.9.6-1.4 4.2-1.6 13.2-.4 17-3.4 25.3-14.5 39.9-6.7 8.8-11.5 17.9-13 24.6-1.4 6-1.4 102.4 0 103.8.6.6 20 .9 49.6.9 45.9-.1 48.8-.2 50.1-1.9 2-2.7 1.9-91.4-.2-100-2.1-8.9-5.3-15.6-12.7-26.4-12.6-18.4-16.5-29.4-15.4-43.9.4-5.6.3-8.8-.5-9.7-.9-1.1-5.3-1.4-20.8-1.4-10.8 0-20.2.4-21 .9zM1356.4 1198.4c-9.8 4.6-11.4 9.3-11.4 34.7 0 20.2.8 24.6 4.5 25.5 4.2 1 17.4.9 18.5-.2.7-.7.9-10.9.8-31.5l-.3-30.4-3.5-.3c-2.1-.1-5.5.7-8.6 2.2zM1503.5 1196.7c-2.7.2-5.4.8-5.9 1.3-1.4 1.4-1.5 20.9-.1 22 .7.5 4 1.1 7.4 1.2 5.5.3 6.5 0 8.1-2 2.6-3.1 3.4-10 2.1-16.3-1.2-5.4-2.4-7-5.1-6.7-.8.1-3.7.3-6.5.5z"/><path d="M1644.8 1196.7c-1 .2-1.8.8-1.8 1.1 0 .4-.3 3.8-.5 7.6-.3 3.8 0 8.6.5 10.7l1.1 3.9h17.8c16.8 0 17.9.1 19.7 2.1 1.8 2 1.9 4.6 1.6 79.8-.3 72.3-.5 77.8-2.1 80.1-2.2 3-8.7 5.5-11.5 4.2-1.9-.8-2-2-1.8-32.3.2-24 0-32-1-33.9-1.8-3.2-6-4-17-3-12 1.1-14.1 2.6-20.5 14.3-10.2 18.6-12.1 21.4-15.7 23.1-3.1 1.5-16.3 1.6-144.4 1.6-77.6 0-141.7.3-142.6.6-1.4.5-1.6 3.1-1.6 18.4 0 15.9.2 17.9 1.8 19.3 1.7 1.6 13.3 1.7 145.8 1.7l143.9.1-4 3.6c-2.2 1.9-7.4 5.2-11.5 7.2l-7.5 3.6-122.8.5c-107.7.4-122.9.7-123.7 2-1.3 1.9-1.3 194.1-.1 199.4 1.3 5.2 2.3 6 8.4 6.6l5.2.5-.3 4.5c-.9 16.7-.6 22.5 1.6 27.3 1.2 2.7 3.5 6.6 5.2 8.7 3.6 4.6 12 9 16.9 9 9 0 20.1-9.1 24.1-19.6 2.3-6.2 2.7-18.3.9-24.8-1.4-5.2-.4-5.8 9.5-5.4l7.8.3 6.2 6.7c6.6 7.3 9.4 8.8 16.2 8.8 5.9 0 10.3-2 15.8-7 3.1-2.9 4.7-3.8 5-2.9.2.8 1.4 4.5 2.6 8.4 2.8 9.2 7 16.3 12.4 21.3 12.3 11.4 26.7 12.1 38.2 1.9 6.4-5.6 9.7-11.2 13.5-22.4 1.7-5.1 4.2-10.7 5.6-12.4 2.5-2.9 2.8-3 10.2-2.7l7.6.3-.5 4c-.3 2.2-.5 8.7-.5 14.5 0 10.1.1 10.8 3.4 16.8 7.3 13.4 18.8 17.5 30.6 10.9 4.9-2.8 10.9-10.6 13.2-17.2 2-5.7 2.3-19.3.4-23.9-1.5-3.7 0-5.6 4.3-5.6 3.9 0 4.5.5 7.9 5.7 3.2 5.1 9 9.2 14 10 8.4 1.3 15.7-2.5 23.2-12.2 2.6-3.3 5.2-6 5.8-6 .7 0 1.5 2.3 1.9 5.1 2.7 18.7 13.8 37.2 25.4 42 12.1 5 29.9-3.7 36.9-18.1 2.8-5.6 6.4-19.1 9.1-34 2.6-13.9 2.6-49.9.1-63.2-2.5-13-7.3-28.8-11-35.6-9.4-17.7-28.3-20.6-41-6.2-3.4 3.9-9.6 18.2-13.2 30.5-2 6.9-4.1 12.9-4.7 13.5-1.4 1.3-.1-127.7 1.3-132.2 1.3-4.1 4-6 15.9-10.8 7.5-3.1 10.7-5.1 15.2-9.5 9.3-9.1 8.8-3.8 8.8-96.6 0-54-.4-82-1.1-85.4-1.6-7.3-6.4-13.9-12.4-17-4.8-2.4-5.6-2.5-25.5-2.7-11.3-.1-21.3.1-22.2.4zM1498.8 1234.7c-2.4.6-2.7 2.5-2 13.8l.7 10 4.6.9c5.7 1.1 9.5.2 10.9-2.4.6-1.2 1.1-5.5 1.1-9.7 0-10.2-1.7-12.7-8.7-13-2.7 0-5.7.1-6.6.4z"/><path d="M1651.4 1234.8c-7.5.4-8.6 2.1-8.8 12.9 0 4.9.3 9.4.7 10 1 1.5 23.2 1.9 24.1.4 1-1.6 1.5-19.6.6-21.1-1-1.6-9-2.6-16.6-2.2zM1334.5 1274.7c-4.6 1.2-5.8 3.4-5.1 9.8.7 7.3 2.9 10.5 8.6 12.6 7.7 2.9 8 3.7 8 23.9 0 20.8.1 21 8.3 21.1 50.7.7 245.1.5 247.8-.2 5.8-1.5 8.8-4.6 12.9-13.5 4.8-10.4 7.9-14.5 14.8-19.4 6.9-5 15.5-7.8 27-8.9 5-.4 9.8-1.4 10.7-2.1 1.1-.9 1.5-3.4 1.5-10.4 0-10-.4-11-4-12.4-2.6-1-326.7-1.4-330.5-.5zM342.5 1551.1c-9.9 2.7-28.3 7.7-41 11-12.6 3.3-26.3 6.9-30.4 8-10.2 2.7-14 4.9-19.9 11.4-5.2 5.7-6.3 8.4-3.9 10.2.6.6 8 3.3 16.2 6.1 8.3 2.8 43.1 14.8 77.5 26.7 97.6 33.8 151 51.8 191.2 64.5l13.6 4.3 61.1-20.2c33.6-11.1 61.1-20.5 61.1-20.9 0-.4-1.4-3-3-5.9-4.3-7.5-9.4-10.5-25.6-15.4-21.7-6.4-43.5-13.3-73.4-23.1-18.6-6.1-29-9.1-32-9-3 0-11.2 2.4-25.3 7.6-11.5 4.1-22.6 8-24.7 8.6-3.7 1-6.5.2-44.2-12.5-22.5-7.6-40.8-14.3-41.5-15.2-2.6-3.5-.7-4.6 31.7-18.5 3.4-1.5 4.1-2.1 3-2.7-1.9-1.1-34.2-11.9-49.1-16.5-15.4-4.8-18.9-4.7-41.4 1.5zM216.6 1618.6c-22.8 12-33.2 18-34.1 19.5-1.6 2.4 8 8.8 13.2 8.9 2.2 0 55.4-32.9 56-34.6.4-1.2-9.2-4.4-12.8-4.4-1.3 0-11.4 4.8-22.3 10.6zM258.3 1628.7c-29.1 22.1-40.8 31.6-40.8 33.1 0 2.2 6.4 5.2 11.8 5.5 4.4.2 4.6 0 29-20.7 13.6-11.4 24.7-21.1 24.7-21.5 0-.9-9.3-6.1-10.9-6.1-.5 0-6.8 4.4-13.8 9.7zM294.6 1640.2c-16.4 17-36.6 39.7-36.6 41.1 0 2.1 4.8 3.9 11.5 4.4l6.1.5 19.8-24.2c10.9-13.4 20.1-25.1 20.4-26.2.3-1.2-.1-1.8-1.2-1.8-.8 0-3-.9-4.8-2-1.8-1.1-3.7-2-4.3-2-.5 0-5.5 4.6-10.9 10.2zM335.7 1643.3c-3.1 3.1-33.7 53.1-33.7 55 0 3.9 9.6 6.2 15.3 3.6 1.6-.7 6.7-8.8 16.6-26.7 7.8-14.1 14.3-26.5 14.4-27.5.1-1.4-1.2-2.5-5.1-4.3l-5.3-2.3-2.2 2.2zM368.2 1655.7c-3.2 8-13.9 37.1-16.8 45.7-4.2 12.4-4.3 14.4-.6 15.1 1.5.3 4.8 1.2 7.4 1.9 3.5 1 5 1.1 5.6.2 1.5-1.7 18.4-58.5 18-60.3-.3-1.4-8.2-5-11.4-5.2-.6-.1-1.6 1.1-2.2 2.6zM403.1 1667.2c-1.2 2.7-5.1 44.8-5.1 54.7 0 4.3.5 7.2 1.3 7.9.6.5 4.1 1.2 7.7 1.3l6.5.4.3-15c.1-8.3.6-15.9 1.1-17 1.3-2.7 2.3-28.7 1.2-30.4-.5-.7-2.6-1.7-4.7-2.1-2.2-.4-4.7-1.1-5.6-1.5-1.3-.5-2-.1-2.7 1.7zM662.5 1671.6c-2.2.8-4.3 1.8-4.7 2.2-.4.4 5.4 4.5 13 9 7.5 4.6 16.6 10.1 20.1 12.2 3.6 2.2 7.4 4 8.6 4 4.8 0 11.9-8.6 9.5-11.5-.7-.8-2.2-1.7-3.3-2.1-2.3-.7-21.8-10.1-27.7-13.4-4.1-2.3-10-2.4-15.5-.4zM441.3 1677.7c-.7.2-1.3 2.1-1.3 4.1 0 4.3 5.1 57.5 5.5 58 .7.7 8.1 2.2 11 2.2 6.1 0 6 .7 2-29.6-2-15.4-4.1-28.5-4.7-29.1-2.6-3.2-10.2-6.6-12.5-5.6zM630.2 1683.8c-2.3.9-4.1 2.1-3.9 2.7.5 1.4 38.6 36 41.4 37.6 2 1 3 .7 8.8-3.1l6.6-4.3-2.3-2.5c-1.3-1.3-6.8-5.9-12.3-10-5.5-4.2-14.2-10.9-19.2-14.9-10.1-7.9-11.4-8.3-19.1-5.5zM478.6 1690.8c-1 1.7 11.1 48.2 13.7 52.3 1.7 2.7 6.8 4.9 11.6 4.9 5.2 0 5.2-.7.6-16-2-6.3-4.7-15.8-6.2-21-3-11.3-5.3-16.1-8.7-18.3-3-2-10.1-3.3-11-1.9zM596.8 1695.2c-2.7 1.1-4.8 2.4-4.8 2.8 0 .9 24 31.3 28.3 35.7 1.6 1.8 4.2 3.5 5.6 3.8 2.4.5 12.6-1.7 13.8-2.9.8-.8-1.6-4.1-10.7-14.6-4.5-5.2-11.6-13.4-15.7-18.3-8.4-9.6-9-9.9-16.5-6.5zM518.2 1703.6c.3.5 4.3 10.3 8.8 21.9 4.5 11.5 8.9 21.8 9.7 22.7 2.6 2.9 14.3 1.5 14.3-1.7 0-.7-2.2-6.2-4.8-12.1-2.7-6-5.5-12.7-6.2-14.9-2.2-6.8-5.1-11.2-9-13.4-3.9-2.2-13.7-4.1-12.8-2.5zM562.8 1705.1c-2.1 1.1-3.8 2.3-3.8 2.7 0 .5 4.7 9.4 10.4 19.8 10.1 18.4 10.5 18.9 13.7 19.2 5.1.4 11.3-1.1 11.7-3 .3-1.4-10-19.3-20.2-35.1-4.1-6.4-5.7-6.9-11.8-3.6z"/></svg>