<?xml version="1.0" standalone="no"?>
<!DOCTYPE svg PUBLIC "-//W3C//DTD SVG 20010904//EN"
 "http://www.w3.org/TR/2001/REC-SVG-20010904/DTD/svg10.dtd">
<svg version="1.0" xmlns="http://www.w3.org/2000/svg"
 width="1920.000000pt" height="1920.000000pt" viewBox="0 0 1920.000000 1920.000000"
 preserveAspectRatio="xMidYMid meet">

<g transform="translate(0.000000,1920.000000) scale(0.100000,-0.100000)"
fill="#000000" stroke="none">
<path d="M9085 17479 c-220 -32 -535 -162 -635 -262 -18 -17 -44 -57 -59 -87
-25 -53 -26 -62 -31 -300 -5 -230 -7 -248 -28 -288 -24 -45 -106 -135 -348
-382 -84 -85 -173 -180 -198 -210 l-45 -55 33 -3 c19 -2 161 6 317 18 156 11
323 23 371 27 127 9 121 18 113 -203 -7 -178 -7 -182 14 -203 20 -20 29 -21
77 -15 40 5 60 3 77 -9 13 -9 60 -87 111 -188 56 -111 101 -186 123 -208 34
-33 37 -33 102 -29 46 4 98 18 170 46 110 45 138 50 147 28 6 -16 -34 -82 -84
-140 -70 -79 -74 -126 -42 -438 35 -333 81 -702 90 -725 12 -29 44 -30 148 -3
71 18 437 106 934 225 108 26 205 53 215 60 15 11 18 50 29 371 7 198 18 493
24 657 10 233 9 304 0 327 -13 31 -50 49 -150 71 -169 36 -290 140 -383 327
-34 68 -57 127 -57 146 0 18 9 68 20 111 29 114 26 244 -11 498 -25 173 -30
229 -25 303 9 119 -13 185 -88 259 -207 206 -599 322 -931 274z"/>
<path d="M10859 15498 c-8 -22 -42 -708 -46 -925 -4 -277 -3 -293 14 -293 30
0 286 41 328 54 l40 11 6 75 c4 41 7 181 8 310 0 129 6 328 12 441 13 233 9
253 -55 283 -41 19 -302 57 -307 44z"/>
<path d="M11452 15430 c-46 -4 -78 -12 -88 -22 -20 -20 -21 -34 -35 -623 -6
-264 -15 -509 -20 -544 -15 -100 -30 -161 -39 -161 -4 0 -13 23 -20 50 -19 78
-60 94 -170 69 -24 -5 -89 -16 -143 -24 -118 -16 -137 -29 -137 -90 0 -24 -6
-47 -12 -52 -7 -6 -215 -59 -463 -118 -247 -59 -569 -136 -715 -171 -146 -36
-277 -67 -292 -71 -23 -5 -29 -1 -42 31 -8 20 -21 39 -29 41 -16 7 -265 -58
-305 -79 -42 -22 -52 -38 -64 -106 -6 -34 -14 -58 -17 -53 -14 15 -68 148 -84
203 -9 30 -37 222 -62 425 -25 204 -48 378 -51 388 -3 9 -11 17 -19 17 -22 0
-128 -85 -196 -157 -89 -95 -122 -163 -173 -360 -139 -527 -274 -903 -483
-1336 -69 -141 -107 -233 -111 -262 -5 -52 17 -122 50 -151 39 -36 39 -56 2
-171 -20 -59 -52 -137 -72 -173 -123 -222 -180 -360 -226 -545 -57 -227 -72
-374 -86 -835 -12 -397 -25 -592 -46 -715 -13 -77 -14 -116 -5 -270 7 -99 11
-308 9 -465 -2 -279 -1 -287 23 -366 14 -45 45 -114 68 -153 62 -102 59 -118
-65 -328 -54 -93 -134 -229 -177 -303 -202 -344 -610 -1044 -767 -1315 -95
-165 -205 -356 -245 -425 -471 -811 -825 -1429 -976 -1702 -91 -166 -118 -208
-135 -208 -42 0 -48 -11 -318 -526 -75 -144 -144 -268 -154 -277 -10 -9 -65
-34 -123 -56 -167 -63 -185 -72 -169 -81 17 -9 474 -166 513 -175 18 -5 69 9
178 49 83 31 158 60 166 64 10 6 -13 19 -74 42 -158 60 -153 57 -153 82 0 13
4 28 9 33 5 6 91 150 191 320 144 246 180 315 175 335 -17 76 -16 96 8 140 13
25 224 394 468 820 655 1140 824 1434 1007 1750 91 157 180 310 197 340 17 30
87 150 155 265 68 116 206 352 307 525 101 173 191 322 199 330 9 9 31 14 63
12 63 -3 76 9 147 133 31 55 91 152 132 215 113 173 126 206 117 294 -15 144
-17 138 79 306 49 85 102 180 119 210 17 30 85 145 152 255 67 110 165 273
218 362 53 89 125 202 160 250 71 99 140 214 247 413 40 74 95 175 122 223 61
107 61 138 1 199 -42 43 -84 59 -127 47 -41 -12 -64 -36 -96 -99 -15 -30 -96
-174 -179 -320 -84 -146 -191 -341 -238 -435 -104 -206 -175 -332 -348 -620
-73 -121 -142 -240 -155 -265 -12 -25 -32 -55 -43 -67 l-20 -23 -27 48 c-27
46 -50 71 -137 147 -53 46 -68 93 -59 193 15 178 67 367 232 829 112 314 161
488 194 678 23 135 44 208 89 309 38 84 127 221 182 281 47 51 73 56 169 30
30 -8 65 -15 78 -15 32 0 63 38 91 112 61 160 283 684 296 697 11 12 21 -1 64
-88 110 -217 211 -464 324 -786 38 -110 73 -218 78 -240 5 -27 2 -81 -11 -165
-47 -310 -83 -647 -104 -961 l-12 -199 -56 -54 c-31 -30 -67 -79 -82 -108 -25
-53 -51 -170 -44 -204 4 -22 174 166 634 702 176 204 452 526 615 715 162 189
299 350 303 357 5 8 12 43 16 79 11 84 30 104 136 142 189 69 285 138 397 286
139 183 263 323 484 543 l233 232 2 198 c3 310 5 353 18 365 9 9 30 -8 92 -73
45 -47 106 -115 136 -152 66 -82 78 -84 176 -26 175 103 338 219 513 367 190
159 253 222 259 257 6 34 27 8 -267 336 -190 212 -416 475 -573 668 -65 80
-146 178 -180 218 -211 250 -478 368 -774 342z m-347 -1330 c10 -11 20 -41 23
-68 3 -41 0 -53 -19 -75 -36 -39 -97 -40 -134 -2 -19 18 -25 35 -25 70 0 63
31 95 93 95 31 0 49 -6 62 -20z m-1959 -504 c37 -37 42 -62 19 -106 -19 -36
-43 -50 -90 -50 -92 0 -120 129 -37 174 43 24 71 19 108 -18z"/>
<path d="M8952 14763 c-85 -56 -148 -105 -155 -119 -8 -19 -6 -78 12 -252 12
-125 29 -294 37 -377 8 -82 17 -162 20 -178 9 -43 35 -51 112 -34 37 8 92 18
123 22 74 8 116 35 124 77 3 18 -1 67 -9 108 -9 41 -34 230 -56 420 -49 422
-50 430 -58 429 -4 0 -71 -43 -150 -96z"/>
<path d="M13145 13583 c-180 -173 -278 -246 -607 -453 -229 -144 -486 -356
-703 -581 -215 -223 -445 -497 -445 -530 0 -5 11 -9 25 -9 13 0 56 -5 95 -12
96 -17 118 -5 216 119 99 125 386 417 527 536 229 195 547 398 547 350 0 -13
-352 -474 -442 -580 -205 -239 -452 -447 -616 -520 -55 -24 -61 -25 -182 -17
-223 15 -322 -2 -476 -79 -49 -24 -102 -47 -119 -51 -46 -11 -55 -24 -55 -78
0 -27 -7 -62 -15 -77 -15 -30 -110 -145 -325 -391 -69 -79 -168 -194 -220
-255 -53 -60 -189 -218 -304 -350 -115 -132 -261 -300 -325 -374 -64 -74 -150
-173 -191 -221 -197 -227 -330 -381 -595 -690 -299 -348 -366 -424 -549 -625
-193 -211 -263 -283 -591 -610 -181 -180 -345 -352 -375 -393 -58 -81 -263
-442 -255 -450 9 -9 292 216 475 377 391 345 695 668 1395 1486 259 303 370
433 646 760 42 50 251 297 465 550 214 252 431 509 481 569 51 61 97 112 102
114 5 2 15 -6 21 -17 6 -12 24 -28 41 -36 41 -22 78 -9 175 61 41 30 80 54 85
54 6 0 25 -11 43 -25 18 -13 70 -42 117 -64 46 -21 101 -51 122 -65 46 -32 50
-32 163 -2 180 49 236 85 319 207 79 118 119 163 269 296 195 175 265 229 461
358 205 136 425 291 520 369 112 91 328 310 443 449 130 158 145 179 167 242
22 65 14 113 -36 219 -50 108 -51 119 -1 110 69 -12 223 -73 296 -115 284
-167 513 -482 621 -854 57 -196 69 -297 69 -585 0 -287 -12 -386 -70 -592 -79
-285 -225 -569 -413 -803 -392 -490 -895 -736 -1456 -712 -639 28 -1162 319
-1483 826 -66 105 -160 293 -204 408 -39 103 -52 112 -119 84 -45 -20 -51 -20
-85 -6 -21 8 -45 13 -54 10 -17 -5 -92 -91 -615 -705 -348 -408 -391 -457
-649 -754 -228 -262 -265 -309 -296 -380 -37 -83 -43 -137 -31 -299 6 -84 16
-259 21 -389 11 -259 19 -298 72 -343 16 -14 40 -27 54 -30 13 -3 35 -7 49
-10 13 -3 29 -13 34 -23 5 -9 16 -208 25 -442 31 -784 38 -862 92 -1028 28
-86 30 -154 10 -262 -32 -168 -46 -304 -71 -685 -87 -1352 -96 -1469 -121
-1517 -9 -18 -37 -50 -61 -72 -59 -52 -74 -90 -71 -190 2 -73 0 -86 -27 -134
-40 -74 -184 -208 -271 -254 -138 -73 -229 -98 -425 -118 -180 -18 -240 -44
-280 -123 -42 -82 -63 -282 -34 -336 20 -39 65 -58 203 -86 177 -35 328 -49
471 -42 159 8 245 28 508 116 253 85 286 89 341 35 l37 -36 220 5 c214 5 279
12 378 44 34 11 51 22 58 40 5 13 9 109 9 214 l0 189 34 37 c47 53 92 138 110
207 18 67 27 178 121 1436 40 543 51 887 75 2520 11 731 22 1051 45 1275 21
205 47 377 57 367 4 -4 21 -53 37 -107 16 -55 63 -215 105 -355 41 -140 120
-408 175 -595 135 -459 287 -969 376 -1260 137 -447 180 -634 305 -1341 29
-159 67 -377 87 -484 30 -169 35 -224 40 -415 5 -195 3 -238 -17 -374 -18
-122 -21 -179 -17 -280 7 -159 22 -213 108 -388 95 -196 116 -294 85 -408 -18
-70 -47 -123 -99 -181 -61 -69 -122 -169 -141 -233 -9 -30 -16 -86 -16 -123 0
-59 3 -72 24 -93 47 -47 260 -85 479 -85 231 0 367 30 494 110 47 29 75 40
104 40 65 0 104 22 123 69 18 45 17 73 -5 386 l-11 150 41 240 c82 488 90 609
72 1075 -32 855 -136 1663 -368 2853 -36 185 -62 296 -73 309 -16 21 -17 21
-132 3 -99 -15 -124 -15 -169 -5 -68 16 -136 82 -162 155 -27 78 -279 1686
-266 1699 3 3 92 -24 199 -58 216 -70 207 -60 91 -103 -24 -9 -59 -31 -77 -49
-32 -30 -34 -35 -34 -98 0 -37 9 -117 20 -179 11 -62 56 -342 100 -624 43
-282 86 -527 94 -546 18 -45 51 -67 101 -67 44 0 184 34 454 111 229 65 264
91 263 193 0 39 -182 1139 -207 1252 -8 38 16 52 130 74 322 64 653 226 910
445 390 332 676 856 791 1450 26 130 28 159 28 395 0 273 -8 348 -60 555 -118
468 -337 819 -640 1021 -156 104 -310 164 -539 209 -153 31 -223 61 -268 117
-46 58 -75 88 -84 88 -4 -1 -57 -49 -118 -107z"/>
<path d="M14976 11779 c-13 -87 -17 -340 -5 -376 6 -20 69 -130 139 -243 839
-1361 1255 -2322 1345 -3114 11 -95 15 -218 14 -388 0 -169 3 -254 10 -261 14
-14 116 -26 154 -19 54 10 60 32 65 275 11 497 -68 915 -277 1469 -233 616
-507 1165 -956 1913 -119 198 -464 755 -476 769 -4 5 -10 -7 -13 -25z"/>
<path d="M11934 11178 l-129 -173 -100 -51 c-223 -112 -414 -111 -563 2 -18
14 -35 24 -38 21 -3 -2 2 -36 10 -75 91 -438 691 -1015 1171 -1127 36 -8 84
-15 106 -15 36 0 39 2 34 23 -3 12 -36 177 -74 367 -78 386 -125 603 -171 795
-49 200 -101 389 -109 398 -4 4 -65 -70 -137 -165z"/>
<path d="M14860 8737 c-17 -9 -26 -22 -28 -44 -5 -49 12 -70 72 -87 61 -18 92
-49 102 -103 5 -27 -1 -54 -28 -122 -46 -112 -91 -312 -71 -310 5 0 44 51 88
112 97 136 161 203 200 213 54 13 55 15 55 175 0 121 -3 150 -16 163 -13 13
-44 16 -182 16 -114 0 -175 -4 -192 -13z"/>
<path d="M15367 8634 c-4 -4 -7 -31 -7 -60 0 -58 14 -74 73 -88 43 -10 85 -56
98 -107 12 -44 10 -52 -34 -172 -48 -130 -53 -147 -39 -147 6 0 146 153 224
244 l24 29 37 -32 c46 -41 51 -58 32 -111 -18 -50 -20 -153 -4 -212 11 -39 9
-48 -14 -94 -33 -64 -87 -112 -213 -189 -58 -35 -129 -89 -170 -130 -63 -62
-74 -79 -93 -139 -20 -64 -21 -90 -21 -427 0 -348 1 -360 20 -379 20 -20 29
-21 511 -18 442 3 492 5 503 20 9 12 11 107 10 370 -1 406 0 400 -99 617 -77
171 -94 242 -106 451 -6 96 -10 187 -10 202 0 45 28 86 79 114 63 36 82 54 82
74 0 29 -91 104 -175 146 l-79 39 -311 3 c-171 2 -314 0 -318 -4z"/>
<path d="M14131 8431 c-9 -6 -14 -42 -16 -132 -4 -170 -34 -253 -145 -399 -67
-88 -115 -179 -130 -246 -14 -60 -14 -1024 0 -1038 6 -6 200 -9 496 -9 459 1
488 2 501 19 20 27 19 914 -2 1000 -21 89 -53 156 -127 264 -126 184 -165 294
-154 439 4 56 3 88 -5 97 -9 11 -53 14 -208 14 -108 0 -202 -4 -210 -9z"/>
<path d="M13564 7216 c-98 -46 -114 -93 -114 -347 0 -202 8 -246 45 -255 42
-10 174 -9 185 2 7 7 9 109 8 315 l-3 304 -35 3 c-21 1 -55 -7 -86 -22z"/>
<path d="M15035 7233 c-27 -2 -54 -8 -59 -13 -14 -14 -15 -209 -1 -220 7 -5
40 -11 74 -12 55 -3 65 0 81 20 26 31 34 100 21 163 -12 54 -24 70 -51 67 -8
-1 -37 -3 -65 -5z"/>
<path d="M16448 7233 c-10 -2 -18 -8 -18 -11 0 -4 -3 -38 -5 -76 -3 -38 0 -86
5 -107 l11 -39 178 0 c168 0 179 -1 197 -21 18 -20 19 -46 16 -798 -3 -723 -5
-778 -21 -801 -22 -30 -87 -55 -115 -42 -19 8 -20 20 -18 323 2 240 0 320 -10
339 -18 32 -60 40 -170 30 -120 -11 -141 -26 -205 -143 -102 -186 -121 -214
-157 -231 -31 -15 -163 -16 -1444 -16 -776 0 -1417 -3 -1426 -6 -14 -5 -16
-31 -16 -184 0 -159 2 -179 18 -193 17 -16 133 -17 1458 -17 l1439 -1 -40 -36
c-22 -19 -74 -52 -115 -72 l-75 -36 -1228 -5 c-1077 -4 -1229 -7 -1237 -20
-13 -19 -13 -1941 -1 -1994 13 -52 23 -60 84 -66 l52 -5 -3 -45 c-9 -167 -6
-225 16 -273 12 -27 35 -66 52 -87 36 -46 120 -90 169 -90 90 0 201 91 241
196 23 62 27 183 9 248 -14 52 -4 58 95 54 l78 -3 62 -67 c66 -73 94 -88 162
-88 59 0 103 20 158 70 31 29 47 38 50 29 2 -8 14 -45 26 -84 28 -92 70 -163
124 -213 123 -114 267 -121 382 -19 64 56 97 112 135 224 17 51 42 107 56 124
25 29 28 30 102 27 l76 -3 -5 -40 c-3 -22 -5 -87 -5 -145 0 -101 1 -108 34
-168 73 -134 188 -175 306 -109 49 28 109 106 132 172 20 57 23 193 4 239 -15
37 0 56 43 56 39 0 45 -5 79 -57 32 -51 90 -92 140 -100 84 -13 157 25 232
122 26 33 52 60 58 60 7 0 15 -23 19 -51 27 -187 138 -372 254 -420 121 -50
299 37 369 181 28 56 64 191 91 340 26 139 26 499 1 632 -25 130 -73 288 -110
356 -94 177 -283 206 -410 62 -34 -39 -96 -182 -132 -305 -20 -69 -41 -129
-47 -135 -14 -13 -1 1277 13 1322 13 41 40 60 159 108 75 31 107 51 152 95 93
91 88 38 88 966 0 540 -4 820 -11 854 -16 73 -64 139 -124 170 -48 24 -56 25
-255 27 -113 1 -213 -1 -222 -4z"/>
<path d="M14988 6853 c-24 -6 -27 -25 -20 -138 l7 -100 46 -9 c57 -11 95 -2
109 24 6 12 11 55 11 97 0 102 -17 127 -87 130 -27 0 -57 -1 -66 -4z"/>
<path d="M16514 6852 c-75 -4 -86 -21 -88 -129 0 -49 3 -94 7 -100 10 -15 232
-19 241 -4 10 16 15 196 6 211 -10 16 -90 26 -166 22z"/>
<path d="M13345 6453 c-46 -12 -58 -34 -51 -98 7 -73 29 -105 86 -126 77 -29
80 -37 80 -239 0 -208 1 -210 83 -211 507 -7 2451 -5 2478 2 58 15 88 46 129
135 48 104 79 145 148 194 69 50 155 78 270 89 50 4 98 14 107 21 11 9 15 34
15 104 0 100 -4 110 -40 124 -26 10 -3267 14 -3305 5z"/>
<path d="M3425 3689 c-99 -27 -283 -77 -410 -110 -126 -33 -263 -69 -304 -80
-102 -27 -140 -49 -199 -114 -52 -57 -63 -84 -39 -102 6 -6 80 -33 162 -61 83
-28 431 -148 775 -267 976 -338 1510 -518 1912 -645 l136 -43 611 202 c336
111 611 205 611 209 0 4 -14 30 -30 59 -43 75 -94 105 -256 154 -217 64 -435
133 -734 231 -186 61 -290 91 -320 90 -30 0 -112 -24 -253 -76 -115 -41 -226
-80 -247 -86 -37 -10 -65 -2 -442 125 -225 76 -408 143 -415 152 -26 35 -7 46
317 185 34 15 41 21 30 27 -19 11 -342 119 -491 165 -154 48 -189 47 -414 -15z"/>
<path d="M2166 3014 c-228 -120 -332 -180 -341 -195 -16 -24 80 -88 132 -89
22 0 554 329 560 346 4 12 -92 44 -128 44 -13 0 -114 -48 -223 -106z"/>
<path d="M2583 2913 c-291 -221 -408 -316 -408 -331 0 -22 64 -52 118 -55 44
-2 46 0 290 207 136 114 247 211 247 215 0 9 -93 61 -109 61 -5 0 -68 -44
-138 -97z"/>
<path d="M2946 2798 c-164 -170 -366 -397 -366 -411 0 -21 48 -39 115 -44 l61
-5 198 242 c109 134 201 251 204 262 3 12 -1 18 -12 18 -8 0 -30 9 -48 20 -18
11 -37 20 -43 20 -5 0 -55 -46 -109 -102z"/>
<path d="M3357 2767 c-31 -31 -337 -531 -337 -550 0 -39 96 -62 153 -36 16 7
67 88 166 267 78 141 143 265 144 275 1 14 -12 25 -51 43 l-53 23 -22 -22z"/>
<path d="M3682 2643 c-32 -80 -139 -371 -168 -457 -42 -124 -43 -144 -6 -151
15 -3 48 -12 74 -19 35 -10 50 -11 56 -2 15 17 184 585 180 603 -3 14 -82 50
-114 52 -6 1 -16 -11 -22 -26z"/>
<path d="M4031 2528 c-12 -27 -51 -448 -51 -547 0 -43 5 -72 13 -79 6 -5 41
-12 77 -13 l65 -4 3 150 c1 83 6 159 11 170 13 27 23 287 12 304 -5 7 -26 17
-47 21 -22 4 -47 11 -56 15 -13 5 -20 1 -27 -17z"/>
<path d="M6625 2484 c-22 -8 -43 -18 -47 -22 -4 -4 54 -45 130 -90 75 -46 166
-101 201 -122 36 -22 74 -40 86 -40 48 0 119 86 95 115 -7 8 -22 17 -33 21
-23 7 -218 101 -277 134 -41 23 -100 24 -155 4z"/>
<path d="M4413 2423 c-7 -2 -13 -21 -13 -41 0 -43 51 -575 55 -580 7 -7 81
-22 110 -22 61 0 60 -7 20 296 -20 154 -41 285 -47 291 -26 32 -102 66 -125
56z"/>
<path d="M6302 2362 c-23 -9 -41 -21 -39 -27 5 -14 386 -360 414 -376 20 -10
30 -7 88 31 l66 43 -23 25 c-13 13 -68 59 -123 100 -55 42 -142 109 -192 149
-101 79 -114 83 -191 55z"/>
<path d="M4786 2292 c-10 -17 111 -482 137 -523 17 -27 68 -49 116 -49 52 0
52 7 6 160 -20 63 -47 158 -62 210 -30 113 -53 161 -87 183 -30 20 -101 33
-110 19z"/>
<path d="M5968 2248 c-27 -11 -48 -24 -48 -28 0 -9 240 -313 283 -357 16 -18
42 -35 56 -38 24 -5 126 17 138 29 8 8 -16 41 -107 146 -45 52 -116 134 -157
183 -84 96 -90 99 -165 65z"/>
<path d="M5182 2164 c3 -5 43 -103 88 -219 45 -115 89 -218 97 -227 26 -29
143 -15 143 17 0 7 -22 62 -48 121 -27 60 -55 127 -62 149 -22 68 -51 112 -90
134 -39 22 -137 41 -128 25z"/>
<path d="M5628 2149 c-21 -11 -38 -23 -38 -27 0 -5 47 -94 104 -198 101 -184
105 -189 137 -192 51 -4 113 11 117 30 3 14 -100 193 -202 351 -41 64 -57 69
-118 36z"/>
</g>
</svg>
