<?xml version="1.0" standalone="no"?>
<!DOCTYPE svg PUBLIC "-//W3C//DTD SVG 20010904//EN"
 "http://www.w3.org/TR/2001/REC-SVG-20010904/DTD/svg10.dtd">
<svg version="1.0" xmlns="http://www.w3.org/2000/svg"
 width="1920.000000pt" height="1920.000000pt" viewBox="0 0 1920.000000 1920.000000"
 preserveAspectRatio="xMidYMid meet">

<g transform="translate(0.000000,1920.000000) scale(0.100000,-0.100000)"
fill="#000000" stroke="none">
<path d="M9155 16833 c-94 -11 -159 -29 -235 -65 -113 -54 -216 -156 -278
-275 -53 -102 -67 -140 -102 -276 -16 -60 -30 -111 -33 -113 -3 -3 -10 25 -17
63 -12 77 -30 116 -30 71 0 -34 -3 -34 -44 -3 -18 14 -43 25 -55 25 -22 0 -22
-2 10 -37 l33 -38 -80 -6 c-95 -7 -143 -29 -203 -94 -50 -55 -84 -124 -107
-220 -27 -112 -31 -117 -39 -51 -16 124 6 219 74 311 l36 50 -37 -28 c-44 -34
-102 -116 -124 -177 -20 -58 -20 -181 0 -239 9 -24 29 -67 45 -95 16 -28 34
-78 41 -111 27 -131 114 -245 231 -304 34 -17 68 -31 75 -31 7 0 -12 26 -42
58 -101 104 -153 259 -129 378 8 39 8 38 21 -34 17 -98 53 -171 115 -237 75
-80 143 -110 244 -110 67 0 88 5 130 27 28 14 59 35 69 47 25 28 39 27 92 -9
l44 -31 0 -67 c0 -128 -55 -395 -100 -482 -29 -57 -86 -118 -134 -142 -30 -15
-72 -23 -161 -29 -305 -23 -468 -81 -606 -219 -65 -64 -94 -108 -212 -309 -75
-128 -137 -243 -137 -255 0 -44 465 -376 526 -376 10 0 33 14 51 32 29 28 35
30 47 18 7 -8 186 -358 396 -778 318 -634 383 -770 383 -804 0 -47 -23 -71
-59 -62 -13 3 -88 33 -166 66 -155 65 -200 77 -223 58 -20 -16 -22 -234 -2
-247 6 -4 84 -10 172 -13 l160 -5 -160 -162 c-186 -190 -214 -207 -290 -179
-66 26 -156 95 -278 215 -140 136 -227 237 -481 554 -176 220 -206 263 -206
291 0 37 -5 29 220 351 249 357 398 580 405 608 7 25 2 28 -84 70 -85 42 -184
104 -312 198 -33 24 -62 38 -69 34 -26 -16 -405 -612 -627 -985 -84 -140 -193
-346 -203 -380 -11 -38 5 -77 46 -109 14 -11 83 -76 153 -143 491 -477 873
-769 1266 -969 94 -47 185 -91 203 -97 17 -6 32 -15 32 -20 0 -10 -140 -132
-255 -223 -86 -68 -282 -209 -435 -314 -122 -83 -130 -90 -130 -118 0 -23 180
-287 196 -287 8 0 44 26 81 58 122 102 171 142 178 142 16 0 -154 -306 -294
-528 -138 -221 -407 -639 -589 -914 -89 -136 -100 -167 -75 -211 10 -17 59
-65 108 -104 98 -79 124 -87 169 -52 l27 21 -7 -41 c-5 -33 -3 -46 12 -62 51
-56 389 -229 614 -314 69 -25 131 -53 139 -60 30 -29 -99 -449 -180 -592 -17
-29 -66 -101 -111 -160 -326 -439 -435 -802 -538 -1793 -11 -107 -33 -343 -50
-525 -49 -535 -63 -607 -151 -772 -55 -104 -64 -145 -94 -443 -9 -91 -23 -232
-31 -315 -27 -277 -18 -347 64 -507 2 -5 -260 -8 -582 -8 -322 0 -586 3 -586
6 0 3 11 15 25 26 32 25 78 93 94 138 12 32 70 734 71 842 0 36 -4 48 -17 52
-14 3 -128 2 -199 -3 -23 -2 -37 -65 -70 -326 -18 -148 -34 -274 -34 -279 0
-5 -3 -6 -7 -2 -5 4 -10 174 -13 378 l-5 370 -24 19 c-17 14 -39 19 -80 19
-107 0 -185 37 -219 105 -21 42 -22 108 -7 345 16 257 19 791 6 874 -5 26 -14
51 -20 55 -7 5 -89 11 -183 14 -94 3 -175 10 -180 15 -12 12 61 30 145 38 34
3 72 7 84 10 27 5 39 44 23 73 -11 21 -15 21 -386 21 -240 0 -382 -4 -395 -10
-15 -9 -19 -22 -19 -64 0 -35 -5 -58 -15 -66 -11 -9 -69 -12 -214 -11 -110 1
-201 -2 -204 -6 -2 -4 36 -82 85 -173 137 -251 298 -565 298 -580 0 -50 -131
160 -302 485 -243 460 -297 567 -314 617 -18 54 -23 148 -9 205 6 28 -12 71
-150 355 -87 178 -193 400 -236 493 -119 257 -132 280 -151 277 -26 -4 -271
-147 -282 -164 -12 -20 46 -157 200 -473 64 -132 156 -322 205 -423 59 -123
93 -182 104 -182 9 0 27 7 41 17 34 22 50 5 63 -63 22 -113 46 -156 185 -328
43 -55 32 -66 -66 -66 -124 0 -183 -38 -195 -127 -9 -68 43 -133 105 -133 11
0 29 -8 41 -17 18 -16 22 -41 41 -243 40 -444 100 -1131 130 -1480 16 -195 33
-373 36 -395 12 -74 45 -147 89 -190 l42 -42 -161 -7 c-89 -3 -476 -9 -861
-12 -385 -4 -722 -10 -750 -13 -54 -7 130 -19 675 -46 804 -38 1122 -45 2620
-55 1366 -9 2276 -24 2350 -39 48 -10 -503 -19 -1905 -31 -654 -6 -1291 -13
-1415 -17 l-225 -7 215 -7 c189 -6 493 -14 1300 -34 118 -3 503 -12 855 -20
352 -9 847 -22 1100 -30 253 -8 491 -15 529 -15 38 0 67 -2 65 -4 -12 -11
-220 -17 -1009 -26 -476 -5 -1018 -12 -1205 -15 -187 -3 -450 -5 -585 -6 -203
-2 -228 -3 -145 -10 241 -18 1123 -41 1890 -50 861 -9 4581 -3 5050 9 516 13
934 29 1043 41 37 4 -392 10 -953 14 -561 4 -1096 9 -1190 12 -93 3 -433 8
-755 12 -832 10 -759 15 930 58 113 3 426 10 695 15 1082 21 1617 33 2085 47
496 15 271 19 -2180 38 -661 6 -1339 21 -1349 30 -2 3 40 5 95 5 54 0 284 5
509 10 226 5 1065 16 1865 25 2053 21 3174 46 3745 82 l120 8 -195 6 c-107 4
-1311 11 -2674 18 -1364 6 -2481 13 -2484 16 -3 2 6 9 20 14 26 10 38 35 30
59 -7 22 -75 46 -337 121 -135 39 -259 78 -275 86 -33 17 -112 139 -206 320
-171 328 -271 647 -303 970 -18 186 -23 528 -12 940 20 747 50 1130 132 1725
32 232 105 678 115 704 7 17 9 18 244 75 211 52 439 125 473 152 18 13 27 30
27 48 0 15 -41 167 -90 337 -50 170 -138 471 -196 669 -411 1406 -583 1917
-823 2459 -95 214 -131 282 -163 312 l-29 29 -229 -4 c-200 -3 -378 4 -368 15
2 2 46 8 98 14 153 17 364 51 373 59 4 5 -63 11 -150 16 -175 8 -266 18 -243
27 8 4 123 11 255 17 181 8 243 14 253 25 10 10 17 56 23 148 22 349 72 603
175 897 54 151 55 159 52 246 -5 145 -18 164 -369 566 -319 364 -435 489 -508
541 -49 35 -46 38 -25 -39 7 -27 -3 -29 -50 -9 -49 21 -101 71 -127 124 -22
43 -24 59 -23 187 0 118 5 155 27 239 15 54 34 109 42 122 20 31 49 31 167 -1
116 -32 233 -41 268 -23 16 9 30 29 38 58 7 25 34 90 60 144 40 86 46 109 48
170 2 60 5 73 24 86 85 60 86 65 14 150 -50 60 -74 106 -74 143 0 13 13 56 29
94 40 96 61 197 61 290 1 75 1 77 16 50 28 -52 33 -212 9 -316 l-6 -26 21 25
c57 71 120 229 134 335 8 56 -6 139 -30 190 -47 100 -161 173 -314 201 -75 14
-96 23 -171 74 -133 89 -263 131 -460 149 -113 11 -136 11 -194 4z m-430
-2738 c101 -139 225 -344 312 -514 89 -175 97 -218 12 -66 -57 103 -298 493
-379 615 -20 30 -43 66 -50 80 l-13 25 23 -20 c12 -11 55 -65 95 -120z m1014
-305 c216 -5 395 -11 398 -13 5 -5 -82 -22 -229 -43 -65 -10 -118 -20 -118
-23 0 -3 35 -14 79 -25 86 -20 128 -38 71 -31 -258 34 -376 59 -577 122 -85
26 -109 40 -50 29 17 -3 209 -10 426 -16z m-1751 -4386 c-13 -30 -145 -267
-206 -369 -118 -199 -365 -595 -369 -591 -12 12 196 376 445 779 125 202 161
252 130 181z m1247 -1670 c72 -8 265 -17 430 -20 165 -3 309 -7 321 -9 31 -7
42 -43 56 -170 18 -180 4 -276 -86 -585 -109 -370 -122 -767 -40 -1220 8 -47
57 -258 109 -470 178 -730 213 -948 181 -1111 -21 -101 -58 -173 -130 -254
-76 -86 -88 -115 -93 -220 -5 -94 5 -143 72 -365 31 -102 75 -351 75 -425 0
-39 -4 -54 -16 -59 -9 -3 -542 -6 -1185 -6 l-1169 0 -14 23 c-7 12 -17 38 -20
58 -3 19 -24 63 -46 97 -81 125 -102 212 -126 521 -19 255 -22 583 -5 716 16
129 77 368 131 515 23 63 90 232 148 375 124 309 248 631 458 1195 170 455
227 581 394 865 131 222 180 317 227 440 19 49 42 101 50 114 17 27 8 27 278
-5z m-5534 -1941 c16 -48 27 -88 25 -91 -14 -13 -78 162 -76 206 1 17 24 -35
51 -115z m710 -1173 c13 -7 19 -21 19 -45 0 -40 -22 -65 -56 -65 -49 0 -58 91
-11 110 29 11 26 11 48 0z m5982 -1291 c26 -17 66 -52 90 -79 53 -58 250 -377
251 -405 1 -19 -6 -20 -255 -23 -204 -2 -259 0 -267 11 -16 19 20 397 43 455
18 44 47 72 76 72 8 0 37 -14 62 -31z m-2793 -332 c53 -26 90 -88 90 -150 l0
-38 -41 41 c-46 45 -130 105 -199 141 l-45 23 30 7 c45 10 114 0 165 -24z"/>
<path d="M9880 14371 c0 -3 48 -63 108 -132 236 -276 404 -469 413 -474 18
-12 14 169 -6 237 -34 119 -125 215 -267 283 -93 45 -248 99 -248 86z"/>
<path d="M11618 14094 c-33 -17 -48 -43 -48 -82 0 -16 22 -119 49 -228 27
-109 74 -306 106 -436 34 -142 64 -247 75 -260 15 -19 28 -23 77 -23 32 -1 68
-4 80 -9 51 -17 47 9 -62 470 -58 241 -110 461 -116 488 -16 65 -46 96 -96 96
-21 -1 -50 -7 -65 -16z"/>
<path d="M12020 13045 c-37 -21 -52 -24 -97 -18 -38 4 -65 1 -98 -11 -89 -34
-114 -126 -115 -411 0 -181 -9 -191 -251 -265 -158 -49 -766 -200 -803 -200
-19 0 -27 6 -30 23 -3 12 -21 168 -42 347 -20 179 -38 327 -40 329 -20 22 -99
-409 -135 -729 -13 -120 -21 -92 93 -352 72 -165 81 -178 114 -178 72 0 457
151 702 275 190 96 286 150 480 270 74 47 146 85 159 85 27 0 24 10 134 -440
45 -184 128 -526 185 -760 57 -234 131 -535 164 -670 33 -135 118 -486 190
-780 72 -294 149 -607 170 -695 21 -88 71 -290 110 -450 39 -159 89 -362 110
-450 21 -88 75 -308 120 -490 45 -181 92 -377 106 -435 14 -58 137 -556 274
-1107 137 -551 265 -1084 284 -1185 39 -201 62 -282 106 -371 l29 -58 -16 -63
c-15 -55 -15 -73 -4 -149 20 -132 12 -129 188 -84 168 43 197 58 201 108 3 39
-50 137 -93 171 -40 31 -73 97 -94 190 -11 47 -38 131 -61 186 -51 129 -97
296 -231 847 -203 832 -270 1108 -394 1615 -68 278 -142 579 -164 670 -22 91
-69 284 -105 430 -36 146 -87 357 -115 470 -124 509 -157 644 -227 930 -41
168 -93 379 -115 470 -22 91 -108 440 -190 775 -83 336 -159 646 -169 690
-144 597 -180 751 -180 768 0 11 28 46 68 83 l67 63 4 103 c5 156 -26 262
-118 397 -61 89 -91 99 -171 56z"/>
<path d="M6246 7093 c-37 -40 -101 -193 -89 -212 6 -9 30 -21 55 -27 74 -19
88 -30 88 -70 0 -19 -13 -61 -29 -92 -74 -147 -57 -246 65 -381 54 -59 59 -62
72 -45 26 35 84 139 204 362 102 188 118 225 107 238 -7 8 -49 37 -93 63 -45
27 -119 72 -166 101 -89 55 -157 89 -177 90 -7 0 -23 -12 -37 -27z"/>
<path d="M3447 7098 c-9 -5 -17 -20 -17 -33 0 -25 185 -418 362 -770 92 -182
97 -189 107 -162 6 16 11 39 11 53 0 44 -409 908 -435 917 -6 3 -19 1 -28 -5z"/>
<path d="M6793 6847 c-4 -6 -17 -30 -29 -52 -11 -22 -154 -284 -318 -582 -329
-604 -324 -591 -265 -658 39 -45 56 -44 75 2 13 30 193 372 384 728 231 432
262 496 248 513 -32 41 -83 68 -95 49z"/>
<path d="M5725 6800 c-59 -13 -136 -72 -176 -136 -27 -45 -16 -59 54 -68 28
-4 63 -14 75 -22 22 -14 23 -20 17 -74 -6 -51 -4 -59 14 -72 25 -18 171 -13
183 6 4 6 8 27 8 46 0 41 7 53 37 69 34 17 43 13 43 -19 0 -42 22 -80 66 -120
37 -32 147 -90 172 -90 7 0 -8 25 -33 55 -57 71 -91 138 -110 216 -19 84 -12
95 64 101 33 2 66 10 75 17 19 16 21 77 4 87 -15 10 -451 13 -493 4z"/>
<path d="M4704 6466 c-34 -15 -104 -73 -104 -87 0 -5 26 -22 58 -38 68 -35 91
-69 99 -149 3 -31 10 -63 16 -69 14 -18 207 -18 231 0 14 10 20 34 26 91 10
99 24 116 109 123 33 3 66 12 72 20 19 22 15 94 -7 110 -26 19 -456 18 -500
-1z"/>
<path d="M5709 6367 c-49 -32 -79 -97 -79 -172 0 -100 -19 -219 -50 -317 -33
-103 -60 -231 -60 -285 l0 -36 43 7 c144 21 159 20 237 -15 72 -33 79 -34 189
-32 63 1 118 6 123 11 4 4 -10 58 -33 123 -72 204 -119 433 -119 592 0 32 -7
71 -15 86 -30 60 -170 82 -236 38z"/>
<path d="M4747 6059 c-15 -11 -31 -38 -37 -62 -9 -34 -32 -62 -121 -148 -111
-108 -129 -140 -95 -168 9 -8 123 -10 402 -9 368 3 389 4 392 21 7 38 -9 65
-88 142 -56 56 -90 99 -111 142 -46 96 -59 103 -199 103 -103 0 -120 -2 -143
-21z"/>
<path d="M5543 5473 c-62 -8 -63 -16 -63 -340 0 -254 -2 -293 -15 -293 -13 0
-15 -39 -15 -292 0 -266 2 -297 19 -335 24 -53 65 -75 151 -80 85 -6 137 12
168 57 l23 34 -3 598 c-4 715 10 652 -139 654 -52 1 -109 -1 -126 -3z"/>
<path d="M5896 5434 c-9 -8 -17 -21 -18 -27 -2 -7 -3 -286 -3 -622 0 -668 3
-637 -59 -694 -32 -31 -33 -62 -2 -98 24 -27 27 -28 119 -26 157 2 212 40 223
151 2 26 9 193 14 372 17 546 23 660 34 675 6 9 34 19 63 24 67 10 98 32 113
76 23 69 -11 144 -76 171 -51 21 -387 20 -408 -2z"/>
<path d="M14330 4044 c-126 -33 -293 -90 -355 -121 -92 -47 -159 -102 -279
-229 -66 -70 -187 -188 -270 -263 -188 -170 -285 -261 -454 -423 l-132 -128
859 0 c931 0 891 -2 878 52 -3 13 -12 52 -21 88 -9 36 -41 187 -72 335 -30
149 -58 279 -61 290 -4 14 -2 17 6 10 27 -26 95 -299 141 -567 19 -112 35
-177 46 -189 16 -18 52 -19 840 -19 l824 0 -12 25 c-14 31 -304 248 -856 642
-508 361 -606 429 -677 464 -133 65 -247 75 -405 33z m-122 -531 c-9 -122 -52
-369 -56 -329 -7 62 45 426 61 426 1 0 -1 -44 -5 -97z m-398 72 c0 -3 -54 -71
-119 -152 -115 -142 -261 -304 -245 -273 22 45 206 269 313 383 45 47 51 52
51 42z m1162 -120 c109 -146 247 -355 234 -355 -16 0 -274 369 -316 450 -18
36 -3 18 82 -95z m368 -49 c134 -118 300 -286 283 -286 -31 0 -453 394 -453
423 0 8 61 -41 170 -137z m-599 7 c50 -108 109 -258 109 -275 -2 -31 -146 286
-174 382 l-8 25 16 -22 c9 -12 35 -62 57 -110z"/>
</g>
</svg>
