<svg version="1.0" xmlns="http://www.w3.org/2000/svg" width="2560" height="2560" viewBox="0 0 1920 1920"><path d="M1126.4 270.5c-27.5 5-50.5 19.3-64.1 39.9-8 12.2-12.9 25.8-16.2 45.1-2.4 13.9-4.3 17.1-12.9 21.4-10.1 5.1-14.1 10.5-15 20.4l-.5 6 4.6-.7c2.6-.4 4.7-.4 4.6.1 0 .4-2.4 2.6-5.2 4.9-6.8 5.3-9.7 9.7-9.7 14.7 0 3.6.2 3.9 2.3 3.3 4.4-1.4 5.2-1.2 5.5 1.5.2 1.9-.7 3.7-3.1 6.3-3.6 3.8-7 4.6-12.1 2.6-3-1.1-3-1-1.5 6.2 3.1 14.6 11.4 22.4 26.5 24.8 3.8.6 7 1.3 7.2 1.5.2.2-1.8 4.1-4.6 8.7-6.9 11.5-11.7 21.4-14.9 30.5-3.6 10.5-3.9 27.6-.7 36.5 1.1 3.1 1.7 5.5 1.3 5.3-1.9-1.2-10.5-17.6-13-24.7-5.3-15.3-4.8-26.6 1.7-38.6 1.9-3.4 3.4-6.5 3.4-6.9 0-.7-18 .4-20.4 1.3-5.3 2-8.1 19.9-8.1 51.6.1 13-.1 23.6-.3 23.4-1.3-1.4-7.7-23.3-9.8-33.6-1.4-6.9-2.7-12.6-2.8-12.8-.5-.5-5.5 18.6-7.5 28.8-1.1 5.2-3.4 18.7-5.2 30-3.8 23.8-4.3 23.6-5.8-1.9-1.4-22.2.1-46.4 4.4-73.4 1.5-9.3 1.3-11.4-1.3-12.1-1-.2-11.7-1.7-24-3.2-15.2-1.9-22.6-2.4-23.3-1.7-.9.9 1.2 30.2 3.6 51.8 1 8.7-1.1 3.8-6-14-7.6-27.6-7.2-26.4-7.8-23.5-.4 1.4-1.1 6.8-1.7 12-3 25.1-8.1 53.2-11.6 64.2-2.2 6.8-4.3 10.6-4.4 8.1-.4-9.1-11.9-103.6-12.7-104.4-.6-.6-8.5-2.7-17.5-4.6-19.1-4-24.6-4-52.5.2-34.3 5.1-72.3 13.5-93.5 20.6-6.5 2.1-12.1 3.9-12.5 3.9-.5-.1 2.8-3.4 7.2-7.5s7.6-7.7 7.3-8.1c-1.5-1.5-60 6.7-62.4 8.7-1.1.9-1.4 5.5-1.4 21 0 13-.4 19.9-1 19.9s-1.2-.6-1.4-1.3c-4.2-15-6.6-22.3-10.5-32.7-4-10.6-5.2-12.8-8.1-14.7-4.1-2.8-12.7-3.1-25.1-.7-9.7 1.8-26.9 7.3-26.9 8.5 0 .5 1.6 3.4 3.7 6.6 16.8 26.3 25.7 74 21.2 114-.6 5.2-.7 9.9-.2 10.4.4.4 4.9 1.3 9.8 1.9 10.7 1.3 16.9.3 23-3.7l4-2.6 15.5 3.1c103.2 20.8 105.4 21.3 107.8 23.8 1.2 1.4 2.2 3.6 2.2 5 0 2.5-15.8 119.6-26.6 196.4-5 36.1-12.3 88.2-17.6 126.8-2 14.4-2 15.3-.4 17.1 1 1.1 8.8 4.2 18.2 7.2 9 3 16.4 5.6 16.4 6 0 .8-11 .2-24.8-1.2-8.9-1-10.6-.9-12.7.5-2.6 1.7-2.7 1.9-7.5 22.6-6.3 26.5-17.4 65.6-28 98.5-3.6 11.1-4.1 13.8-3.6 18.5 1.9 16.6 13.4 85.6 34.5 206.8 5.1 28.7 8.9 52.7 8.6 53.2-1.1 1.7-7.1 1.1-8.8-.8-1.1-1.2-3-9.4-5.7-24.3-10.9-61.4-23.9-132-24.6-133-.5-.8-3-1-7.9-.6-3.9.3-7.7.2-8.2-.1-.6-.4-1.6-4.2-2.2-8.6-1.4-9.7-3.7-15-8.7-19.8-7.2-6.8-16.7-8.2-25.2-3.9-10.7 5.5-13.5 15.6-9.2 32.7 1.1 4.3 1.8 8.4 1.5 9.1-.2.7-1.8 1.3-3.4 1.3-4 0-6 .9-7.2 3.1-.7 1.4 2.3 18.3 12 67.7 7.1 36.1 13.3 67.3 13.6 69.3 1 5.7-.7 6.4-11 4.3-11.5-2.3-12.3-1.8-18 9.7-7 13.8-10.2 22.7-15 41.8-2.4 9.5-4.6 17.6-4.9 17.9-.3.3-.6-6.4-.6-14.9 0-35.6 6.9-56.1 25.7-75.9l6.4-6.8-2.8-.6c-1.5-.3-9.1-1.3-16.9-2.2l-14.1-1.7-10 8.1c-5.5 4.5-11.5 9.8-13.2 11.7-7.9 9-14.3 28.6-17.6 53.8-2.1 16.7-2 22.9.5 24.5 1.3.8 2 2.3 2 4.3 0 6.2-4.1 27.4-5.5 28.4-.7.5-2 1.4-2.9 2-2.5 1.7-6.6 29.2-7.3 49-.4 13.4-.2 19.3 1.2 28 3.5 22.7 11.6 40.7 25.6 57.7 2.2 2.6 3.9 4.9 3.9 5.2 0 .3-83.7.6-185.9.6-143 0-186.2.3-186.7 1.2-1.2 1.8-1 16.6.2 17.8.7.7 226.7 1 746.9 1 628.8 0 746.2-.2 747.3-1.4 2.2-2.2 2.8-13.1.8-16.1-1.6-2.4-1.9-2.5-13.5-2.5-9.6 0-12.1-.3-13.2-1.6-1.1-1.3-1-6 .4-27.7 1.8-27.2 9.3-120.1 10.2-127.4.6-3.8 1.1-4.4 6.1-7.2 10.1-5.8 16.4-15 16.4-24.3 0-10.5-12.1-86.1-14.6-91.5-2.2-4.6-7.6-9-12.6-10.3-5.3-1.5-42.1-1.5-44.8 0-1.8 1-3 4-4.4 11.5-1.1 5.7-.7 5.8 20.5 5.7 22.3-.2 25.3.5 28 5.8.9 1.9 4.1 17 6.9 33.5 4.4 25.6 5 30.5 4.1 33.7-1.7 5.4-5.7 7.8-14.9 8.9-4.4.6-59.3.8-129.2.7l-121.5-.3-4.2-2.2c-7.4-4-8.6-7.7-5.8-18.3.8-3 2.8-14.1 4.5-24.7 4.7-29.8 5.5-33.2 8.2-35 .7-.4 14.4-1 30.3-1.3l29-.5.3-3c.2-1.6-.4-5.8-1.3-9.2-1.4-5.3-2.1-6.4-4.3-7-1.4-.3-14.1-.3-28.2 0-23.5.5-26.1.7-30.7 2.7-11.8 5-12.4 6.9-20.8 64-4.8 32-4.6 39 1 50.5 3.8 7.5 4.4 8.2 10 11.1 5.1 2.6 6.1 3.6 6.8 6.5.4 1.9 2.5 26.3 4.7 54.4 2.2 28 5 62 6.1 75.5 1.9 23.3 1.9 24.5.3 25.7-2.6 1.9-167.3 1.9-167.8 0-.2-.6-1.8-7.9-3.5-16.1-3.7-17.1-5.3-20.8-11.7-26.4-8.7-7.7-21-10.9-47.4-12.2-21.3-1-26.1-2.3-35.8-9.5-6.5-4.7-10.2-9.2-10.2-12.3 0-1.2 1.7-4.1 3.8-6.5 2-2.4 6.5-8.2 9.8-12.8 3.4-4.6 9.1-12.2 12.6-16.9 8.5-11 47-63.1 68.3-92 5.4-7.4 13.4-18.2 17.6-24 4.2-5.8 15-20.4 23.8-32.5 28.5-38.9 58.1-79 77-104.3 26.8-36 32.1-44.6 37.4-60.3 4-11.9 5-21 4.5-38.6-.4-13.7-.9-16.9-3.2-23.6-4.4-13-9.1-18.6-16.6-20.1-8.3-1.7-34.8-9.2-49.8-14.2-27.2-9-52.6-19.4-85.5-35.1l-15.9-7.6-51.6-6.8c-42.7-5.6-52.1-6.5-54.4-5.6-1.5.7-7.3 6.6-13 13.3-5.7 6.6-16.6 19.4-24.3 28.4-7.7 9-15.8 18.5-18 21.1-5.2 6-53 53.9-52 51.9 1-1.7 31.8-44.8 38-53 2.3-3 8.7-11.6 14.2-19 5.6-7.5 15.7-20.9 22.6-29.8l12.6-16.1-3.2-.5c-18.5-2.6-23.1-3.1-28.7-3-8.8.1-15.1 3.4-22.1 11.5-2.9 3.4-9.1 9.3-13.7 13.3-17 14.5-23.3 19.6-24.3 19.6-1.3 0 14.3-20.6 28.1-36.9 12-14.3 12.5-15.6 8-20.1-2.6-2.6-4.2-2.5-14.5.5-12.1 3.5-30 6.2-28.9 4.4.3-.6 4.3-3.4 8.7-6.4 10.7-7.1 11.4-7.7 12.7-11 1.2-3.1-.2-15.7-2.3-20.2-1.2-2.7-5.9-4.2-13.2-4.4-2.7-.1-6.1-.4-7.5-.8-2-.6-1.2-1 5-2.8 4.1-1.2 9.3-2.5 11.4-2.9 5.1-.9 7.2-3 12.6-12.9 22.6-41.3 88.1-143.5 92-143.5 1.3 0 5.6 11.1 23.5 61.5 5.6 15.9 13.3 36.6 17 46l6.8 17-1.1 6.8c-1.8 10.3-1.5 17.4.9 22.3 2.2 4.7 13.5 15.8 15 14.9.5-.4.9-2.2.9-4.1 0-5.4 3.7-21.2 7-29.8 5.4-13.8 14.9-27.9 24.3-35.8 7.7-6.4 20.5-13.8 23.9-13.8.6 0-3.7 4.6-9.5 10.2-7.4 7.3-11.7 12.5-14.7 17.8-2.4 4.1-5.4 9.5-6.8 11.9l-2.6 4.4 4.5-2.7c15.1-9.3 25.4-12.5 42-13.3 10.5-.5 25.7.3 24.7 1.3-.3.2-4.7 1.5-9.9 2.8-30.4 8-49.6 20.5-61.5 40.4-3.9 6.4-7.4 16.7-7.4 21.6 0 8.8 6.6 18.3 16 23.1 2.7 1.4 5.1 2.5 5.3 2.5.2 0 .7-2.9 1.1-6.5 1-9.5 3.7-17.2 8.8-25.1 8.6-13.4 19.3-22.1 35.6-28.9 16.2-6.8 27.3-8.1 37.2-4.4 8.3 3.1 10.3 3 11.1-.6 1.1-5.2.9-15.9-.5-19.8-3.3-9.2-11.2-15.1-25.5-18.9l-8.3-2.2 5.3-2.3c5.9-2.6 9.9-5.9 9.9-8.1 0-3.5-4.1-9.3-13.6-19.2-12.9-13.5-12.9-13.5-12-37 .9-25.3-.2-33.6-8.5-65.3-13.7-52.7-26.9-99.9-33-118.2-4.7-14.1-6.8-17-21.4-29.3-4.9-4.2-15.8-13.5-24-20.7-8.3-7.1-15.8-13.6-16.7-14.3-1.5-1.2-1.9-.6-3.9 6-13.3 45-21.7 71.5-22.9 72.3-1.8 1.1-2.1-4.5-1.1-21.6 1.2-18.2 3.8-38.3 7.1-54.5 3.4-16.3 2.6-21.6-3.9-27.8l-3-2.9-.5 2.4c-.3 1.3-1.7 7.4-3 13.4-1.3 6.1-3.3 13.1-4.2 15.5l-1.9 4.5-.6-3c-1-4.8-1-41.8.1-54.9 1.1-13.1 2.2-16.5 6.2-18.4 3.7-1.7 7.5-.3 22.3 8.5 17.1 10.1 21.8 11.8 32.9 11.4 4.8-.2 10-6.4 12.6-15.1 1.6-5.3 3.1-8.3 5.5-10.5 1.7-1.6 5-4.7 7.1-6.7 2.2-2 5.6-7 7.7-11.1 5.5-10.9 7-12 17.2-12.6 4.6-.4 8.9-1.1 9.5-1.7 1.5-1.5 1.4-6.8-.4-24.9-2.4-22.9-2.3-23.9 2.2-27.1 12.2-9 14.1-12.2 17.8-30.2.2-1.2 1.1-2.2 2-2.2.9 0 8.2 2.9 16.2 6.4 18.9 8.2 24 9.8 31.6 10 8.8.1 14.4-2.3 20.6-9 5.7-6.3 8.6-14 7.7-20.7-1-7.6-6-11.3-36.6-26.5-15.2-7.6-28-14.6-28.7-15.7-.8-1.2-2.3-7.2-3.3-13.5-7.6-43.8-30.6-66.5-83.6-82.6-17-5.2-36.9-6.7-52.1-3.9zm-236.9 326c15.9 1.3 31 3.6 33.3 5.1 2.1 1.4 2.3 2 2 11.2-.2 6.6.3 12.2 1.5 17.4 2.1 9.4 2.2 21.5.2 28.8-3 11.3-4.4 17.7-5 23.2l-.6 5.8h-4.2c-8 0-41.2-3.1-43.6-4.1-2.3-1-2.4-1.2-1.8-9.3.5-6.5.2-8.9-1-11.2-.9-1.6-2.2-4.1-3-5.7-1.3-2.4-1.8-12.8-1.3-28 0-1 1.1-2.2 2.3-2.6 2.1-.8 2.5-1.9 3-7.2.4-3.4.7-9 .7-12.5 0-9.8 1.7-12.5 7.5-11.8 1.1.1 5.6.5 10 .9zm0 104.6c16.5 4.5 51.5 15.5 52.4 16.5.3.3-.7.4-2.4 0-9.9-2-52.8-8.8-56.7-8.9-6.1-.3-8 1.6-15.4 15.1-10.8 19.9-34.7 58.9-35.1 57.5-.2-.5 1-4 2.5-7.9 1.6-3.8 8.9-21.3 16.2-38.9 7.3-17.6 13.8-33.5 14.6-35.3 1.3-3.3 1.5-3.4 5.6-2.7 2.4.4 10.6 2.5 18.3 4.6zm216.7 6.3c17.7 8.4 17.9 8.6 15.3 18.5-3.6 13.9-12.1 36.1-13.8 36.1-4.3 0-75.5-21.8-78.7-24.1-1.3-1-1.3-1 0-.6.8.2 10.9 3 22.3 6.1 16.4 4.5 21.2 5.4 22.3 4.5 1.8-1.5 1.8-4.4-.2-9.6-2.1-5.3-1.2-9 4.4-18.6 2.1-3.6 5.1-9.5 6.6-13.1 2-4.6 3.4-6.6 4.6-6.6 1 0 8.7 3.3 17.2 7.4zm-161.6 40.5c28.4 9.9 39.7 14 58.4 21.4 21.8 8.5 46.2 18.8 45.7 19.3-1.4 1.5-43.4-8.9-77.2-19.1-44.2-13.3-50.4-15.5-52.1-18-2.4-3.7-.1-10.5 3.6-10.5.9 0 10.7 3.1 21.6 6.9zM905 909.4c6.3 5.6 14.3 12.3 17.8 15 3.4 2.7 6 5.1 5.7 5.4-.2.3-5.5-2-11.7-5.1-19.4-9.5-32.7-21.8-41.5-38.5-2.4-4.3-4.3-8.4-4.3-9 0-.6 5.1 4.2 11.3 10.5 6.1 6.4 16.4 16.1 22.7 21.7zm-113.6 134.1c2 2 2.9 5.2 2.2 7.8-.3 1.2-6 6.7-12.8 12.2-6.8 5.4-20.8 17.2-31.3 26-20.1 17.1-48.6 39.7-49.3 39-.9-.9 12.8-18.2 25.7-32.4 35.8-39.6 47.4-51.7 50.4-52.8 4.7-1.7 13.3-1.6 15.1.2zM637.3 1219c3.9 4.4 3.7 9.2-.7 13.6-5.2 5.2-10.3 4.4-14.8-2.3-2.2-3.4-2.3-6.5-.2-10.4 3-5.8 10.8-6.3 15.7-.9zm512.7 26.7c0 .5-6.9 9.4-15.3 19.9-36.9 46.3-74.2 94.4-126.6 163.4-32.8 43.1-38.1 50.5-38.1 53.1 0 1.9 1.4 4.1 4.8 7.3 6.5 6.3 25.2 21.1 38.3 30.4 6 4.2 10.6 7.8 10.4 8-1.3 1.4-43.8-18.1-52.9-24.3-11.9-8.1-15-7.4-18 4.1-.9 3.3-2.9 9.4-4.6 13.5-9.7 23.3-11.2 30.1-13 61-.6 9.6-1.7 21.5-2.5 26.5-2 12.1-2 11.9 2.6 16.9l4.2 4.5h-43.9l-43.9-.1 3.5-2.9c1.9-1.6 7.7-6 12.7-9.6 13.6-9.7 18.2-15.2 26.8-32.4 4-8.1 8-17.1 8.9-20.1 1.1-3.9 1.8-14.7 2.6-37.9.6-17.9 1.9-53.2 3-78.5 1-25.3 2.4-58.8 3-74.5.6-15.7 1.5-40.2 2-54.5.6-14.3 1-28.2 1-30.8 0-7.9 1.7-8.9 19.5-11.4 8.3-1.2 29.2-4.3 46.5-6.8 42.6-6.2 119.6-17.8 146-21.9 11.8-1.9 21.8-3.5 22.3-3.5.4-.1.7.2.7.6zm-474 155.8c8 1.4 15.7 2.9 17.3 3.3l2.7.7-4.4 7.1c-11.5 18.5-19.6 41.1-21.2 59.4-1.1 12-1.9 12.7-4 3.5-1.3-5.9-1.8-11.7-1.7-22 .1-14.4.7-19.1 4.5-30.9 2.2-6.7 2.2-6.8.3-8.2-1.3-1-4.9-1.4-11.6-1.4-14.9 0-25.1 3.9-35.8 13.5-2.3 2.1-4.1 3.4-4.1 3 0-.4 1.4-3.5 3-6.9 7.6-15.4 19.5-23.2 35.5-23.5 2.8-.1 11.6 1 19.5 2.4zm-24.4 159c22 6.4 35.3 16.2 91.4 67.2l3.5 3.2-56.2.1c-31 0-56.3-.2-56.3-.4s1.1-2.8 2.5-5.7c5.2-11.4 5.4-20.7 1.3-54-.6-5.2-.9-10.3-.5-11.2.9-2.3 4-2.1 14.3.8zm395.6 63.7c7.5 2.5 12.8 4.8 12.8 5.5 0 1.9-30 1.9-30.1 0-.2-2.3.3-8.2.8-9 .8-1.3 3.6-.7 16.5 3.5z"/><path d="M881 605.9c-1.1 2.2-1.4 30-.2 31.7 1.5 2.3 5 3.2 15.7 4.4 17.7 1.8 18.7.9 19.3-16.6.5-13.7 0-16.9-2.5-17.8-2.1-.9-23.6-3.6-28-3.6-2.2 0-3.6.6-4.3 1.9zM881.8 649.7c-2.6.7-3.7 5.7-4 17.6-.2 8.2.1 11 1.1 11.7 1.6 1 12.3 2 24.4 2.2 6.5.2 9.1-.1 10.1-1.2 2-2 2.7-25.3.9-27.1-.7-.7-7-1.8-14.5-2.5-14.1-1.4-15.3-1.4-18-.7zM1090 714.6c-1.7 7.1-1.7 9.5 0 10.5 4.5 2.5 19.1 8 19.9 7.5.5-.3 1.7-3.5 2.6-7.1 1.8-6.4 1.8-6.6-.1-8.1-4.1-3.2-11.8-6.5-16.4-7.1l-4.8-.6-1.2 4.9zM1081.9 734.7c-.9 1-1.4 4.1-1.4 8.4 0 10.1 2.8 12.3 18.7 14.5 5.5.7 6.2-.2 7.1-8.8.5-4.8.2-6.1-1.5-8.4-4.8-6-19.6-9.7-22.9-5.7zM526.5 492.6c-7.4 4.9-12.5 10.8-12.5 14.4 0 .6 1.7 2.9 3.9 5.3 5 5.5 14.2 18.4 19.2 26.9 4.7 7.9 10.1 19.8 9.1 19.7-.4 0-2.9-2.8-5.7-6.2-10.7-13.2-25.7-29.7-28.9-31.6-4.5-2.8-7.7-2.6-11.9.8-2 1.5-6.1 4.1-9.2 5.5-6.6 3.3-9.6 7.8-13.2 19.9-8.4 28.5-14.5 63.7-21.8 125.7-2 16.8-3.8 31.9-4.1 33.6-.8 4.4 1.3 5.6 11.8 6.5 5.1.5 11.7 1.6 14.7 2.5 5.6 1.6 15.6 6.2 14.9 6.9-.2.2-4.6-.3-9.8-1.1-12.2-1.8-22.8-1.8-32.7.1-14.3 2.7-14.8 3.3-15.8 18-1.6 22.6-4.8 47.3-11 85-2.4 14.8-5.6 35.3-7.1 45.4-3.1 22-2.9 23.8 4.5 30.3 2.7 2.4 7.1 7 9.7 10.3 2.6 3.3 7.4 8.9 10.6 12.4 7.1 7.9 8.5 12 6.9 20.7-.6 3.4-1.1 8.7-1.1 11.9 0 5.5.3 6.1 3.6 9.2 4.5 4.1 4.6 2.9-3 36.3-3.1 13.5-8.3 36.4-11.6 51-3.2 14.6-9.3 41.6-13.5 60-4.2 18.4-10 44.5-13.1 58-11.1 49.8-17.6 77.5-18.4 78.3-1.1 1.2-11.9-8.1-19.1-16.5-18.3-21.2-29-44.7-39.3-85.6-10-39.8-14.1-83.4-11.7-123.7 2.2-36.3 6.7-60.3 15.2-80 13.4-31.2 30.6-51.6 61.3-72.5 12.4-8.4 15.5-12.5 16.3-21.9.3-3.2.1-6.1-.4-6.4-1.6-1-14.3 5.1-24.5 11.9-19.4 12.9-36.5 28.9-49.3 46.1-7.6 10.2-20 34.6-24.4 47.8-12.9 39.4-16 106-7.6 163 3.4 22.8 10.8 55.6 16.6 73 1.6 4.9 6.3 15.7 10.4 24 11 22.2 22.1 36.1 46.3 57.7 2.3 2.1 4.4 4.9 4.8 6.3.4 1.7-2 13.8-6.6 33.3-4 16.9-8.3 35.2-9.5 40.7-3.3 14.2-20.3 86.8-22 94-6.1 25.3-10.5 45.8-10.5 48.5 0 2.6.6 3.3 3.4 4.5 1.9.8 5.1 1.7 7.3 2.1 5 .8 6.5-1 8.7-10.1 20.8-90.1 43.9-190.7 46.1-201.3.8-3.9 1.7-4 12.8-.8 14.8 4.3 28.5 5.9 44.7 5.3 15.6-.6 24.4-2.2 38.5-6.8 45.1-14.9 95.1-59.2 128-113.4 7.8-12.9 22.7-43 28-56.5 25-64.1 29.9-121.5 15.4-180.5-10.9-44.1-30.1-79-58.7-106.7-21.8-21.1-41.6-31.6-65.9-35.3-11.3-1.7-23.6-1.9-26.3-.5-1.6.8-1.7 1.8-1.3 7.2.3 3.5 1 6.8 1.5 7.5.5.6 3.9 1.4 7.6 1.8 27.9 2.4 43.9 8.6 63.8 24.7 23.2 18.7 47.6 56.9 59.2 92.9 6.7 20.6 9.3 36.8 9.9 61.6.4 12.7.1 25.6-.6 32.5-5.7 56.2-23.3 105.8-53.4 150.2-20.6 30.4-54.7 65.3-79.3 81.2-32.8 21.2-66 27-103.6 18.3-10.3-2.4-13.8-4.7-13.8-9.2 0-1.7 5-24.7 11.1-51.1 6.1-26.4 12.1-52.8 13.4-58.6 1.3-5.8 4.6-20.4 7.4-32.5 2.7-12.1 10.8-48.1 18-80 7.2-31.9 13.3-59 13.6-60.2.3-1.4 1.8-2.5 4.7-3.5 5.3-1.6 6.1-3.2 9.2-18.5 1.4-6.5 2.7-12.6 3-13.6 1.9-5.6 1.6-5.4 3.5-3.1 3.6 4.5 8.3 5.3 11 2 .7-.8 3-9.4 5.1-19.1 2.2-9.8 5.4-22.1 7.1-27.4 2.5-7.7 3.3-11.9 3.7-20.7.5-13.4-1.1-28.5-4.4-40.8-6-22.4-6.7-26.6-6.8-41.1 0-15.3 1.8-26.8 6-38.9 2.8-8 3-10.5.9-13.2-.8-1-1.5-3.2-1.5-4.7 0-3.7 7.2-22.9 20.8-55.2 12.6-30 27.8-66.4 29.3-70.3l1.1-2.7 1.4 2.7c.8 1.5 2.3 3.2 3.4 3.8 2.6 1.4 14.6.2 16.1-1.6 1.9-2.3 1.5-35.3-.5-46.4-2-10.8-6.3-24.5-10.2-32.2-6.5-12.9-18.3-27-29.8-35.4-7.3-5.5-12.8-6-19.1-1.8zm-45.2 240.9c8.2 1.7 17.7 6.6 21.7 11.2 4.3 4.8 3.7 5.9-1.2 2.5-9.8-6.7-22.3-10.8-35.8-11.9-8.5-.6-9.2-1-3.8-2.3 5.2-1.2 11.7-1.1 19.1.5zM1262.7 982c-11.7 3-29.4 13.7-38.5 23.4-7.1 7.6-10.9 15.1-13 25.7-3.1 15.9-1.5 17.8 26.2 31.4 45.9 22.4 87.3 37.4 134.1 48.5 7.2 1.7 13.5 3.4 14 3.8.6.4 2.1 2.2 3.4 4 3.3 4.7 6.9 6.2 14.9 6.2 3.9 0 16.8 1.8 28.8 3.9 12.1 2.2 26.2 4.7 31.4 5.6 14.3 2.4 14.9 2.5 15.9 4.4.6 1.1-.2 6.1-2.4 15.4-8 32.4-11.5 60.8-12.2 99.7-.6 32.3.2 49.5 3.8 77 3.9 30.8 5.2 35 11.5 37.6 6 2.5 49 3.9 77.4 2.6 25.5-1.2 29.5-2 32.4-6.5 3.8-5.8 7.3-31.9 8.7-64.9 2.2-53.8-2.9-70.7-29.1-97-12-11.9-17.9-20.7-21-31.4-1.1-3.8-1-4.6 1-8.7l2.2-4.5-2.7-5.1c-4.6-8.4-5-8.6-18.9-8.7-10.3 0-12.7-.3-16.2-2.1-3.8-2-6.4-5.6-6.4-8.9 0-.8 1.1-4.2 2.5-7.5 2-4.8 2.3-6.4 1.4-7.5-.6-.8-1.8-1.4-2.6-1.4-.7 0-3.5-1.1-6.2-2.4-6.3-3.2-8.9-8.1-7.2-13.6 2.2-7.3 7.3-11 15.3-11 3.5 0 4.2-1.3 2.8-5.6-1-3-1.6-3.5-3.4-2.9-1.1.4-4.3.9-7.1 1.1-6.6.7-10.9-1.7-15.7-8.6-5.2-7.3-4.8-8.2 1.2-2.6 2.8 2.6 6.6 5.4 8.5 6.2 4.6 1.9 10.1 1.8 10.9-.2.7-1.8.3-2.6-8-16.5-9.6-16.1-16.3-21.2-27.9-21.2-6.7 0-13.1 2.3-19.2 7.1-6.9 5.4-5 5.7-32.2-4.8l-16.3-6.3-4.3 2.3-4.3 2.3-19.8-9.7c-22.5-11-40.4-20.6-64.4-34.6-22.6-13.1-25.5-14.3-36.5-14.6-4.9-.2-10.7.1-12.8.6zm135.1 81c-1.9 5.5-2.2 8.9-2.2 22.3-.1 14.4-.2 15.5-1.5 12.5-2.6-6.4-3.6-15.3-2.4-22.4 1-5.9 6.9-20.2 7.9-19.2.2.2-.7 3.3-1.8 6.8zm94.3 193.7c1.8 14.6 6.1 36.7 7.9 41 1.3 3.2 4.9 3 17.1-1.2 16.9-5.7 36.1-15.4 47-23.8 7-5.3 7.4-5.3 4.8-.6-6.3 11.5-22.6 23.7-40.8 30.5-9.8 3.7-29.5 8.4-31 7.4-1.2-.7-5.6-27.5-7.1-43.5-1.1-12.3-1.3-26.2-.4-25.2.4.4 1.5 7.3 2.5 15.4zM1623.4 1005.7c-13.1 8.8-13.1 8.2-.2 7.6 8.5-.4 11.9-.9 13.8-2.2 3.4-2.4 3.8-6.4.8-8.5-3.7-2.6-7.1-1.9-14.4 3.1z"/><path d="M1502.8 1007.1c-2.4.4-6.7 1.8-9.4 3.2-4.8 2.4-16.1 12.7-19.2 17.6-1.5 2.2-1.4 2.5.3 3.7 1 .8 2.8 1.4 3.9 1.4 3.7 0 12 4.6 16.3 9 2.3 2.3 7.4 10.2 11.5 17.6 7.1 12.9 7.3 13.2 8.3 10.4 2.2-6.4 2.3-6.4 28.3-7.2 13-.4 24.6-.4 25.7-.1 1.1.3 4.3 2.2 7 4.3 2.8 2.1 6.9 4.7 9.2 5.9 4.5 2.2 16.4 5.4 17.2 4.5.3-.2-2.8-3.7-6.7-7.7-11-11-19.1-24.5-19.5-32.7l-.2-3.5 5.3-.5c2.9-.3 5.7-1.1 6.1-1.9.5-.7 1.1-5 1.5-9.6.7-9.3-.4-13.2-3.8-14-3.2-.8-76.7-1.1-81.8-.4zm55 40.1c1.5 2.4 3.9 6.1 5.2 8.2l2.4 3.9-10-.6c-10.7-.6-13.4-1.2-13.4-3.2 0-1.1 11.4-12.5 12.5-12.5.2 0 1.7 1.9 3.3 4.2zM1662.2 1011.7c-2.8 2.1-4.9 4.1-4.6 4.4.2.4 3.6.6 7.4.4 8.5-.2 11.1-1.9 9.2-6-1.7-3.7-5.9-3.3-12 1.2zM1628 1025.6c-.8.1-6.4.6-12.3.9-12.3.8-14.1 2.6-3.2 3.1 3.9.2 12.5 1.1 19.2 1.9 9 1.2 12.8 1.3 14.3.5 2.4-1.3 2.7-5.5.4-6.4-1.6-.6-15.6-.6-18.4 0zM1713 1028.3c-9.6 2.9-27 9.8-27 10.7 0 .4 4.2 1 9.3 1.4 5 .3 12.1 1.3 15.7 2.1 20.3 4.5 23.5 4.4 27.3-.7 2.9-3.9 2.5-8.5-1.2-12.2-2.7-2.7-3.8-3.1-9.8-3.3-4.9-.2-8.9.4-14.3 2zM1616.5 1051.1c5.6 5.7 12.9 14.1 16.3 18.6 7.4 9.8 12.6 13.3 19.6 13.3 6.2 0 10.1-2.4 12.7-7.8 2.5-5.1 2.1-9-1.7-13.9-4.1-5.4-5.3-5.8-54.9-20-1.1-.3 2.5 4.1 8 9.8zM1692 1063.8c0 1.1 12.9 12.5 15.9 14.1 3.2 1.7 6.8.1 7.7-3.5.9-3.7-1.9-5.7-13.1-8.8-10-2.9-10.5-2.9-10.5-1.8z"/><path d="M1524.5 1068.5c-2.2.8-4.1 1.5-4.2 1.5-.1 0-1 1.4-1.9 3.2-1.1 2.1-1.5 4.6-1.1 7.7.9 8.1 5.7 10.3 26.7 12.2 18.4 1.7 24.4 0 27.6-7.6 2.4-5.9-1.4-13.3-8-15.4-9-3-32.7-3.9-39.1-1.6zM1621 1084.9c0 .5.5 2.2 1 3.7.6 1.5 1.6 9.1 2.1 16.8 1.1 14.5 2.2 18.3 6.1 21 3.8 2.7 7.7 2 11.4-2 5.8-6 4.5-12.7-4.5-22.9-7.5-8.7-16.1-17.5-16.1-16.6zM1724.1 1088.8l-3.4.3 6.4 6.5c7.2 7.2 10.6 8.3 13.5 3.9 4.1-6.2-4.6-11.8-16.5-10.7zM1503.4 1096.4c-4.9 2.2-6 8.3-2.4 12.8 3 3.8 8.7 4.9 30 5.5 29.2.8 36.1-1.2 36.4-10.5.1-6.8.2-6.8-24.6-7.6-12.3-.3-25.4-.9-29.3-1.1-4.8-.4-8-.1-10.1.9zM1659.5 1108.6c1.3 2.9 5.3 15.5 5.9 18.5.8 3.6 3.6 6.7 6.8 7.5 3.8.9 7.8-3.2 7.8-8 0-4.4-3.9-9.1-12.2-14.7-7.5-5.1-9.4-5.9-8.3-3.3zM1549 1119c-3 .5-11.3.8-18.3.9l-12.9.1-3.4 3.4c-2.5 2.5-3.4 4.3-3.4 6.8.1 8.4 4.2 10.7 20 10.7 13.2 0 24.3-1.4 28-3.5 4.3-2.6 7.2-8.5 6.8-14.1l-.3-4.8-5.5-.1c-3-.1-8 .2-11 .6zM1508 1410c-72.3.4-101.2.8-103 1.6-6.2 2.9-9.8 11.2-7 16.3 2.8 5.3-1.3 5.1 128.7 5.1 117.3 0 120.9-.1 123.9-1.9 1.9-1.2 3.7-3.4 4.4-5.5 1-3.2.9-4-1.1-7.6-1.3-2.3-3.9-5.1-5.9-6.3-4.1-2.6 8.4-2.4-140-1.7zM331.3 1498.2c-.6.7-3.8 13.2-7.2 27.7l-6.3 26.4 2.1 5.4c2.3 5.9 1.9 8.1-1.3 8.8-1.1.3-19.6.6-41.1.7l-39 .3-5.5 2.7c-4.1 2-8.6 6-17.8 15.8l-12.3 13 10.3.1c5.7.1 11.7.3 13.3.4 1.7.1 54.3.6 117 1l114 .8-6.5-7.4c-10.9-12.3-23.1-24-26.6-25.5-2.7-1.1-11.2-1.4-41.4-1.4h-38.1l-2.4-2.5c-3.2-3.1-3.1-4.5.4-13 1.6-3.9 4.1-12.4 5.6-19s3.5-15.1 4.6-19c2.2-7.9 2.4-11.1.8-12.1-2-1.2-15.3-4.4-18.5-4.4-1.7 0-3.6.6-4.1 1.2zM195.4 1607.3c-1.2.7-5.1 4.6-8.7 8.7l-6.5 7.5 73.9.3c40.6.1 107.2.1 147.8 0l73.9-.3-3.6-4.1c-2-2.3-5.6-6.2-7.8-8.8l-4.1-4.6H328.9c-101.2.1-131.9.4-133.5 1.3z"/></svg>