<?xml version="1.0" standalone="no"?>
<!DOCTYPE svg PUBLIC "-//W3C//DTD SVG 20010904//EN"
 "http://www.w3.org/TR/2001/REC-SVG-20010904/DTD/svg10.dtd">
<svg version="1.0" xmlns="http://www.w3.org/2000/svg"
 width="1920.000000pt" height="1920.000000pt" viewBox="0 0 1920.000000 1920.000000"
 preserveAspectRatio="xMidYMid meet">

<g transform="translate(0.000000,1920.000000) scale(0.100000,-0.100000)"
fill="#000000" stroke="none">
<path d="M11264 16495 c-275 -50 -505 -193 -641 -399 -80 -122 -129 -258 -162
-451 -24 -139 -43 -171 -129 -214 -101 -51 -141 -105 -150 -204 l-5 -60 46 7
c26 4 47 4 46 -1 0 -4 -24 -26 -52 -49 -68 -53 -97 -97 -97 -147 0 -36 2 -39
23 -33 44 14 52 12 55 -15 2 -19 -7 -37 -31 -63 -36 -38 -70 -46 -121 -26 -30
11 -30 10 -15 -62 31 -146 114 -224 265 -248 38 -6 70 -13 72 -15 2 -2 -18
-41 -46 -87 -69 -115 -117 -214 -149 -305 -36 -105 -39 -276 -7 -365 11 -31
17 -55 13 -53 -19 12 -105 176 -130 247 -53 153 -48 266 17 386 19 34 34 65
34 69 0 7 -180 -4 -204 -13 -53 -20 -81 -199 -81 -516 1 -130 -1 -236 -3 -234
-13 14 -77 233 -98 336 -14 69 -27 126 -28 128 -5 5 -55 -186 -75 -288 -11
-52 -34 -187 -52 -300 -38 -238 -43 -236 -58 19 -14 222 1 464 44 734 15 93
13 114 -13 121 -10 2 -117 17 -240 32 -152 19 -226 24 -233 17 -9 -9 12 -302
36 -518 10 -87 -11 -38 -60 140 -76 276 -72 264 -78 235 -4 -14 -11 -68 -17
-120 -30 -251 -81 -532 -116 -642 -22 -68 -43 -106 -44 -81 -4 91 -119 1036
-127 1044 -6 6 -85 27 -175 46 -191 40 -246 40 -525 -2 -343 -51 -723 -135
-935 -206 -65 -21 -121 -39 -125 -39 -5 1 28 34 72 75 44 41 76 77 73 81 -15
15 -600 -67 -624 -87 -11 -9 -14 -55 -14 -210 0 -130 -4 -199 -10 -199 -6 0
-12 6 -14 13 -42 150 -66 223 -105 327 -40 106 -52 128 -81 147 -41 28 -127
31 -251 7 -97 -18 -269 -73 -269 -85 0 -5 16 -34 37 -66 168 -263 257 -740
212 -1140 -6 -52 -7 -99 -2 -104 4 -4 49 -13 98 -19 107 -13 169 -3 230 37
l40 26 155 -31 c1032 -208 1054 -213 1078 -238 12 -14 22 -36 22 -50 0 -25
-158 -1196 -266 -1964 -50 -361 -123 -882 -176 -1268 -20 -144 -20 -153 -4
-171 10 -11 88 -42 182 -72 90 -30 164 -56 164 -60 0 -8 -110 -2 -248 12 -89
10 -106 9 -127 -5 -26 -17 -27 -19 -75 -226 -63 -265 -174 -656 -280 -985 -36
-111 -41 -138 -36 -185 19 -166 134 -856 345 -2068 51 -287 89 -527 86 -532
-11 -17 -71 -11 -88 8 -11 12 -30 94 -57 243 -109 614 -239 1320 -246 1330 -5
8 -30 10 -79 6 -39 -3 -77 -2 -82 1 -6 4 -16 42 -22 86 -14 97 -37 150 -87
198 -72 68 -167 82 -252 39 -107 -55 -135 -156 -92 -327 11 -43 18 -84 15 -91
-2 -7 -18 -13 -34 -13 -40 0 -60 -9 -72 -31 -7 -14 23 -183 120 -677 71 -361
133 -673 136 -693 10 -57 -7 -64 -110 -43 -115 23 -123 18 -180 -97 -70 -138
-102 -227 -150 -418 -24 -95 -46 -176 -49 -179 -3 -3 -6 64 -6 149 0 356 69
561 257 759 l64 68 -28 6 c-15 3 -91 13 -169 22 l-141 17 -100 -81 c-55 -45
-115 -98 -132 -117 -79 -90 -143 -286 -176 -538 -21 -167 -20 -229 5 -245 13
-8 20 -23 20 -43 0 -62 -41 -274 -55 -284 -7 -5 -20 -14 -29 -20 -25 -17 -66
-292 -73 -490 -4 -134 -2 -193 12 -280 35 -227 116 -407 256 -577 22 -26 39
-49 39 -52 0 -3 -837 -6 -1859 -6 -1430 0 -1862 -3 -1867 -12 -12 -18 -10
-166 2 -178 7 -7 2267 -10 7469 -10 6288 0 7462 2 7473 14 22 22 28 131 8 161
-16 24 -19 25 -135 25 -96 0 -121 3 -132 16 -11 13 -10 60 4 277 18 272 93
1201 102 1274 6 38 11 44 61 72 101 58 164 150 164 243 0 105 -121 861 -146
915 -22 46 -76 90 -126 103 -53 15 -421 15 -448 0 -18 -10 -30 -40 -44 -115
-11 -57 -7 -58 205 -57 223 2 253 -5 280 -58 9 -19 41 -170 69 -335 44 -256
50 -305 41 -337 -17 -54 -57 -78 -149 -89 -44 -6 -593 -8 -1292 -7 l-1215 3
-42 22 c-74 40 -86 77 -58 183 8 30 28 141 45 247 47 298 55 332 82 350 7 4
144 10 303 13 l290 5 3 30 c2 16 -4 58 -13 92 -14 53 -21 64 -43 70 -14 3
-141 3 -282 0 -235 -5 -261 -7 -307 -27 -118 -50 -124 -69 -208 -640 -48 -320
-46 -390 10 -505 38 -75 44 -82 100 -111 51 -26 61 -36 68 -65 4 -19 25 -263
47 -544 22 -280 50 -620 61 -755 19 -233 19 -245 3 -257 -26 -19 -1673 -19
-1678 0 -2 6 -18 79 -35 161 -37 171 -53 208 -117 264 -87 77 -210 109 -474
122 -213 10 -261 23 -358 95 -65 47 -102 92 -102 123 0 12 17 41 38 65 20 24
65 82 98 128 34 46 91 122 126 169 85 110 470 631 683 920 54 74 134 182 176
240 42 58 150 204 238 325 285 389 581 790 770 1043 268 360 321 446 374 603
40 119 50 210 45 386 -4 137 -9 169 -32 236 -44 130 -91 186 -166 201 -83 17
-348 92 -498 142 -272 90 -526 194 -855 351 l-159 76 -516 68 c-427 56 -521
65 -544 56 -15 -7 -73 -66 -130 -133 -57 -66 -166 -194 -243 -284 -77 -90
-158 -185 -180 -211 -52 -60 -530 -539 -520 -519 10 17 318 448 380 530 23 30
87 116 142 190 56 75 157 209 226 298 l126 161 -32 5 c-185 26 -231 31 -287
30 -88 -1 -151 -34 -221 -115 -29 -34 -91 -93 -137 -133 -170 -145 -233 -196
-243 -196 -13 0 143 206 281 369 120 143 125 156 80 201 -26 26 -42 25 -145
-5 -121 -35 -300 -62 -289 -44 3 6 43 34 87 64 107 71 114 77 127 110 12 31
-2 157 -23 202 -12 27 -59 42 -132 44 -27 1 -61 4 -75 8 -20 6 -12 10 50 28
41 12 93 25 114 29 51 9 72 30 126 129 226 413 881 1435 920 1435 13 0 56
-111 235 -615 56 -159 133 -366 170 -460 l68 -170 -11 -68 c-18 -103 -15 -174
9 -223 22 -47 135 -158 150 -149 5 4 9 22 9 41 0 54 37 212 70 298 54 138 149
279 243 358 77 64 205 138 239 138 6 0 -37 -46 -95 -102 -74 -73 -117 -125
-147 -178 -24 -41 -54 -95 -68 -119 l-26 -44 45 27 c151 93 254 125 420 133
105 5 257 -3 247 -13 -3 -2 -47 -15 -99 -28 -304 -80 -496 -205 -615 -404 -39
-64 -74 -167 -74 -216 0 -88 66 -183 160 -231 27 -14 51 -25 53 -25 2 0 7 29
11 65 10 95 37 172 88 251 86 134 193 221 356 289 162 68 273 81 372 44 83
-31 103 -30 111 6 11 52 9 159 -5 198 -33 92 -112 151 -255 189 l-83 22 53 23
c59 26 99 59 99 81 0 35 -41 93 -136 192 -129 135 -129 135 -120 370 9 253 -2
336 -85 653 -137 527 -269 999 -330 1182 -47 141 -68 170 -214 293 -49 42
-158 135 -240 207 -83 71 -158 136 -167 143 -15 12 -19 6 -39 -60 -133 -450
-217 -715 -229 -723 -18 -11 -21 45 -11 216 12 182 38 383 71 545 34 163 26
216 -39 278 l-30 29 -5 -24 c-3 -13 -17 -74 -30 -134 -13 -61 -33 -131 -42
-155 l-19 -45 -6 30 c-10 48 -10 418 1 549 11 131 22 165 62 184 37 17 75 3
223 -85 171 -101 218 -118 329 -114 48 2 100 64 126 151 16 53 31 83 55 105
17 16 50 47 71 67 22 20 56 70 77 111 55 109 70 120 172 126 46 4 89 11 95 17
15 15 14 68 -4 249 -24 229 -23 239 22 271 122 90 141 122 178 302 2 12 11 22
20 22 9 0 82 -29 162 -64 189 -82 240 -98 316 -100 88 -1 144 23 206 90 57 63
86 140 77 207 -10 76 -60 113 -366 265 -152 76 -280 146 -287 157 -8 12 -23
72 -33 135 -76 438 -306 665 -836 826 -170 52 -369 67 -521 39z m-2369 -3260
c159 -13 310 -36 333 -51 21 -14 23 -20 20 -112 -2 -66 3 -122 15 -174 21 -94
22 -215 2 -288 -30 -113 -44 -177 -50 -232 l-6 -58 -42 0 c-80 0 -412 31 -436
41 -23 10 -24 12 -18 93 5 65 2 89 -10 112 -9 16 -22 41 -30 57 -13 24 -18
128 -13 280 0 10 11 22 23 26 21 8 25 19 30 72 4 34 7 90 7 125 0 98 17 125
75 118 11 -1 56 -5 100 -9z m0 -1046 c165 -45 515 -155 524 -165 3 -3 -7 -4
-24 0 -99 20 -528 88 -567 89 -61 3 -80 -16 -154 -151 -108 -199 -347 -589
-351 -575 -2 5 10 40 25 79 16 38 89 213 162 389 73 176 138 335 146 353 13
33 15 34 56 27 24 -4 106 -25 183 -46z m2167 -63 c177 -84 179 -86 153 -185
-36 -139 -121 -361 -138 -361 -43 0 -755 218 -787 241 -13 10 -13 10 0 6 8 -2
109 -30 223 -61 164 -45 212 -54 223 -45 18 15 18 44 -2 96 -21 53 -12 90 44
186 21 36 51 95 66 131 20 46 34 66 46 66 10 0 87 -33 172 -74z m-1616 -405
c284 -99 397 -140 584 -214 218 -85 462 -188 457 -193 -14 -15 -434 89 -772
191 -442 133 -504 155 -521 180 -24 37 -1 105 36 105 9 0 107 -31 216 -69z
m-396 -1615 c63 -56 143 -123 178 -150 34 -27 60 -51 57 -54 -2 -3 -55 20
-117 51 -194 95 -327 218 -415 385 -24 43 -43 84 -43 90 0 6 51 -42 113 -105
61 -64 164 -161 227 -217z m-1136 -1341 c20 -20 29 -52 22 -78 -3 -12 -60 -67
-128 -122 -68 -54 -208 -172 -313 -260 -201 -171 -486 -397 -493 -390 -9 9
128 182 257 324 358 396 474 517 504 528 47 17 133 16 151 -2z m-1541 -1755
c39 -44 37 -92 -7 -136 -52 -52 -103 -44 -148 23 -22 34 -23 65 -2 104 30 58
108 63 157 9z m5127 -267 c0 -5 -69 -94 -153 -199 -369 -463 -742 -944 -1266
-1634 -328 -431 -381 -505 -381 -531 0 -19 14 -41 48 -73 65 -63 252 -211 383
-304 60 -42 106 -78 104 -80 -13 -14 -438 181 -529 243 -119 81 -150 74 -180
-41 -9 -33 -29 -94 -46 -135 -97 -233 -112 -301 -130 -610 -6 -96 -17 -215
-25 -265 -20 -121 -20 -119 26 -169 l42 -45 -439 0 -439 1 35 29 c19 16 77 60
127 96 136 97 182 152 268 324 40 81 80 171 89 201 11 39 18 147 26 379 6 179
19 532 30 785 10 253 24 588 30 745 6 157 15 402 20 545 6 143 10 282 10 308
0 79 17 89 195 114 83 12 292 43 465 68 426 62 1196 178 1460 219 118 19 218
35 223 35 4 1 7 -2 7 -6z m-4740 -1558 c80 -14 157 -29 173 -33 l27 -7 -44
-71 c-115 -185 -196 -411 -212 -594 -11 -120 -19 -127 -40 -35 -13 59 -18 117
-17 220 1 144 7 191 45 309 22 67 22 68 3 82 -13 10 -49 14 -116 14 -149 0
-251 -39 -358 -135 -23 -21 -41 -34 -41 -30 0 4 14 35 30 69 76 154 195 232
355 235 28 1 116 -10 195 -24z m-244 -1590 c220 -64 353 -162 914 -672 l35
-32 -562 -1 c-310 0 -563 2 -563 4 0 2 11 28 25 57 52 114 54 207 13 540 -6
52 -9 103 -5 112 9 23 40 21 143 -8z m3956 -637 c75 -25 128 -48 128 -55 0
-19 -300 -19 -301 0 -2 23 3 82 8 90 8 13 36 7 165 -35z"/>
<path d="M8810 13141 c-11 -22 -14 -300 -2 -317 15 -23 50 -32 157 -44 177
-18 187 -9 193 166 5 137 0 169 -25 178 -21 9 -236 36 -280 36 -22 0 -36 -6
-43 -19z"/>
<path d="M8818 12703 c-26 -7 -37 -57 -40 -176 -2 -82 1 -110 11 -117 16 -10
123 -20 244 -22 65 -2 91 1 101 12 20 20 27 253 9 271 -7 7 -70 18 -145 25
-141 14 -153 14 -180 7z"/>
<path d="M10900 12054 c-17 -71 -17 -95 0 -105 45 -25 191 -80 199 -75 5 3 17
35 26 71 18 64 18 66 -1 81 -41 32 -118 65 -164 71 l-48 6 -12 -49z"/>
<path d="M10819 11853 c-9 -10 -14 -41 -14 -84 0 -101 28 -123 187 -145 55 -7
62 2 71 88 5 48 2 61 -15 84 -48 60 -196 97 -229 57z"/>
<path d="M5265 14274 c-74 -49 -125 -108 -125 -144 0 -6 17 -29 39 -53 50 -55
142 -184 192 -269 47 -79 101 -198 91 -197 -4 0 -29 28 -57 62 -107 132 -257
297 -289 316 -45 28 -77 26 -119 -8 -20 -15 -61 -41 -92 -55 -66 -33 -96 -78
-132 -199 -84 -285 -145 -637 -218 -1257 -20 -168 -38 -319 -41 -336 -8 -44
13 -56 118 -65 51 -5 117 -16 147 -25 56 -16 156 -62 149 -69 -2 -2 -46 3 -98
11 -122 18 -228 18 -327 -1 -143 -27 -148 -33 -158 -180 -16 -226 -48 -473
-110 -850 -24 -148 -56 -353 -71 -454 -31 -220 -29 -238 45 -303 27 -24 71
-70 97 -103 26 -33 74 -89 106 -124 71 -79 85 -120 69 -207 -6 -34 -11 -87
-11 -119 0 -55 3 -61 36 -92 45 -41 46 -29 -30 -363 -31 -135 -83 -364 -116
-510 -32 -146 -93 -416 -135 -600 -42 -184 -100 -445 -131 -580 -111 -498
-176 -775 -184 -783 -11 -12 -119 81 -191 165 -183 212 -290 447 -393 856
-100 398 -141 834 -117 1237 22 363 67 603 152 800 134 312 306 516 613 725
124 84 155 125 163 219 3 32 1 61 -4 64 -16 10 -143 -51 -245 -119 -194 -129
-365 -289 -493 -461 -76 -102 -200 -346 -244 -478 -129 -394 -160 -1060 -76
-1630 34 -228 108 -556 166 -730 16 -49 63 -157 104 -240 110 -222 221 -361
463 -577 23 -21 44 -49 48 -63 4 -17 -20 -138 -66 -333 -40 -169 -83 -352 -95
-407 -33 -142 -203 -868 -220 -940 -61 -253 -105 -458 -105 -485 0 -26 6 -33
34 -45 19 -8 51 -17 73 -21 50 -8 65 10 87 101 208 901 439 1907 461 2013 8
39 17 40 128 8 148 -43 285 -59 447 -53 156 6 244 22 385 68 451 149 951 592
1280 1134 78 129 227 430 280 565 250 641 299 1215 154 1805 -109 441 -301
790 -587 1067 -218 211 -416 316 -659 353 -113 17 -236 19 -263 5 -16 -8 -17
-18 -13 -72 3 -35 10 -68 15 -75 5 -6 39 -14 76 -18 279 -24 439 -86 638 -247
232 -187 476 -569 592 -929 67 -206 93 -368 99 -616 4 -127 1 -256 -6 -325
-57 -562 -233 -1058 -534 -1502 -206 -304 -547 -653 -793 -812 -328 -212 -660
-270 -1036 -183 -103 24 -138 47 -138 92 0 17 50 247 111 511 61 264 121 528
134 586 13 58 46 204 74 325 27 121 108 481 180 800 72 319 133 590 136 602 3
14 18 25 47 35 53 16 61 32 92 185 14 65 27 126 30 136 19 56 16 54 35 31 36
-45 83 -53 110 -20 7 8 30 94 51 191 22 98 54 221 71 274 25 77 33 119 37 207
5 134 -11 285 -44 408 -60 224 -67 266 -68 411 0 153 18 268 60 389 28 80 30
105 9 132 -8 10 -15 32 -15 47 0 37 72 229 208 552 126 300 278 664 293 703
l11 27 14 -27 c8 -15 23 -32 34 -38 26 -14 146 -2 161 16 19 23 15 353 -5 464
-20 108 -63 245 -102 322 -65 129 -183 270 -298 354 -73 55 -128 60 -191 18z
m-452 -2409 c82 -17 177 -66 217 -112 43 -48 37 -59 -12 -25 -98 67 -223 108
-358 119 -85 6 -92 10 -38 23 52 12 117 11 191 -5z"/>
<path d="M12627 9380 c-117 -30 -294 -137 -385 -234 -71 -76 -109 -151 -130
-257 -31 -159 -15 -178 262 -314 459 -224 873 -374 1341 -485 72 -17 135 -34
140 -38 6 -4 21 -22 34 -40 33 -47 69 -62 149 -62 39 0 168 -18 288 -39 121
-22 262 -47 314 -56 143 -24 149 -25 159 -44 6 -11 -2 -61 -24 -154 -80 -324
-115 -608 -122 -997 -6 -323 2 -495 38 -770 39 -308 52 -350 115 -376 60 -25
490 -39 774 -26 255 12 295 20 324 65 38 58 73 319 87 649 22 538 -29 707
-291 970 -120 119 -179 207 -210 314 -11 38 -10 46 10 87 l22 45 -27 51 c-46
84 -50 86 -189 87 -103 0 -127 3 -162 21 -38 20 -64 56 -64 89 0 8 11 42 25
75 20 48 23 64 14 75 -6 8 -18 14 -26 14 -7 0 -35 11 -62 24 -63 32 -89 81
-72 136 22 73 73 110 153 110 35 0 42 13 28 56 -10 30 -16 35 -34 29 -11 -4
-43 -9 -71 -11 -66 -7 -109 17 -157 86 -52 73 -48 82 12 26 28 -26 66 -54 85
-62 46 -19 101 -18 109 2 7 18 3 26 -80 165 -96 161 -163 212 -279 212 -67 0
-131 -23 -192 -71 -69 -54 -50 -57 -322 48 l-163 63 -43 -23 -43 -23 -198 97
c-225 110 -404 206 -644 346 -226 131 -255 143 -365 146 -49 2 -107 -1 -128
-6z m1351 -810 c-19 -55 -22 -89 -22 -223 -1 -144 -2 -155 -15 -125 -26 64
-36 153 -24 224 10 59 69 202 79 192 2 -2 -7 -33 -18 -68z m943 -1937 c18
-146 61 -367 79 -410 13 -32 49 -30 171 12 169 57 361 154 470 238 70 53 74
53 48 6 -63 -115 -226 -237 -408 -305 -98 -37 -295 -84 -310 -74 -12 7 -56
275 -71 435 -11 123 -13 262 -4 252 4 -4 15 -73 25 -154z"/>
<path d="M16234 9143 c-131 -88 -131 -82 -2 -76 85 4 119 9 138 22 34 24 38
64 8 85 -37 26 -71 19 -144 -31z"/>
<path d="M15028 9129 c-24 -4 -67 -18 -94 -32 -48 -24 -161 -127 -192 -176
-15 -22 -14 -25 3 -37 10 -8 28 -14 39 -14 37 0 120 -46 163 -90 23 -23 74
-102 115 -176 71 -129 73 -132 83 -104 22 64 23 64 283 72 130 4 246 4 257 1
11 -3 43 -22 70 -43 28 -21 69 -47 92 -59 45 -22 164 -54 172 -45 3 2 -28 37
-67 77 -110 110 -191 245 -195 327 l-2 35 53 5 c29 3 57 11 61 19 5 7 11 50
15 96 7 93 -4 132 -38 140 -32 8 -767 11 -818 4z m550 -401 c15 -24 39 -61 52
-82 l24 -39 -100 6 c-107 6 -134 12 -134 32 0 11 114 125 125 125 2 0 17 -19
33 -42z"/>
<path d="M16622 9083 c-28 -21 -49 -41 -46 -44 2 -4 36 -6 74 -4 85 2 111 19
92 60 -17 37 -59 33 -120 -12z"/>
<path d="M16280 8944 c-8 -1 -64 -6 -123 -9 -123 -8 -141 -26 -32 -31 39 -2
125 -11 192 -19 90 -12 128 -13 143 -5 24 13 27 55 4 64 -16 6 -156 6 -184 0z"/>
<path d="M17130 8917 c-96 -29 -270 -98 -270 -107 0 -4 42 -10 93 -14 50 -3
121 -13 157 -21 203 -45 235 -44 273 7 29 39 25 85 -12 122 -27 27 -38 31 -98
33 -49 2 -89 -4 -143 -20z"/>
<path d="M16165 8689 c56 -57 129 -141 163 -186 74 -98 126 -133 196 -133 62
0 101 24 127 78 25 51 21 90 -17 139 -41 54 -53 58 -549 200 -11 3 25 -41 80
-98z"/>
<path d="M16920 8562 c0 -11 129 -125 159 -141 32 -17 68 -1 77 35 9 37 -19
57 -131 88 -100 29 -105 29 -105 18z"/>
<path d="M15245 8515 c-22 -8 -41 -15 -42 -15 -1 0 -10 -14 -19 -32 -11 -21
-15 -46 -11 -77 9 -81 57 -103 267 -122 184 -17 244 0 276 76 24 59 -14 133
-80 154 -90 30 -327 39 -391 16z"/>
<path d="M16210 8351 c0 -5 5 -22 10 -37 6 -15 16 -91 21 -168 11 -145 22
-183 61 -210 38 -27 77 -20 114 20 58 60 45 127 -45 229 -75 87 -161 175 -161
166z"/>
<path d="M17241 8312 l-34 -3 64 -65 c72 -72 106 -83 135 -39 41 62 -46 118
-165 107z"/>
<path d="M15034 8236 c-49 -22 -60 -83 -24 -128 30 -38 87 -49 300 -55 292 -8
361 12 364 105 1 68 2 68 -246 76 -123 3 -254 9 -293 11 -48 4 -80 1 -101 -9z"/>
<path d="M16595 8114 c13 -29 53 -155 59 -185 8 -36 36 -67 68 -75 38 -9 78
32 78 80 0 44 -39 91 -122 147 -75 51 -94 59 -83 33z"/>
<path d="M15490 8010 c-30 -5 -113 -8 -183 -9 l-129 -1 -34 -34 c-25 -25 -34
-43 -34 -68 1 -84 42 -107 200 -107 132 0 243 14 280 35 43 26 72 85 68 141
l-3 48 -55 1 c-30 1 -80 -2 -110 -6z"/>
<path d="M15080 5100 c-723 -4 -1012 -8 -1030 -16 -62 -29 -98 -112 -70 -163
28 -53 -13 -51 1287 -51 1173 0 1209 1 1239 19 19 12 37 34 44 55 10 32 9 40
-11 76 -13 23 -39 51 -59 63 -41 26 84 24 -1400 17z"/>
<path d="M3313 4218 c-6 -7 -38 -132 -72 -277 l-63 -264 21 -54 c23 -59 19
-81 -13 -88 -11 -3 -196 -6 -411 -7 l-390 -3 -55 -27 c-41 -20 -86 -60 -178
-158 l-123 -130 103 -1 c57 -1 117 -3 133 -4 17 -1 543 -6 1170 -10 l1140 -8
-65 74 c-109 123 -231 240 -266 255 -27 11 -112 14 -414 14 l-381 0 -24 25
c-32 31 -31 45 4 130 16 39 41 124 56 190 15 66 35 151 46 190 22 79 24 111 8
121 -20 12 -153 44 -185 44 -17 0 -36 -6 -41 -12z"/>
<path d="M1954 3127 c-12 -7 -51 -46 -87 -87 l-65 -75 739 -3 c406 -1 1072 -1
1478 0 l739 3 -36 41 c-20 23 -56 62 -78 88 l-41 46 -1314 0 c-1012 -1 -1319
-4 -1335 -13z"/>
</g>
</svg>
